# 바이킹 드워프 헬멧 — 수제 로우폴리
# +Y up, +Z front
v 0.00000 1.08000 0.00000
v 0.00000 1.07131 0.14178
v 0.02484 1.07121 0.13985
v 0.04950 1.07093 0.13385
v 0.07357 1.07049 0.12332
v 0.09619 1.06996 0.10773
v 0.11611 1.06942 0.08689
v 0.13183 1.06895 0.06116
v 0.14196 1.06863 0.03163
v 0.14546 1.06851 0.00000
v 0.14376 1.06834 -0.03234
v 0.13516 1.06838 -0.06391
v 0.12046 1.06861 -0.09265
v 0.10090 1.06895 -0.11700
v 0.07793 1.06932 -0.13605
v 0.05284 1.06966 -0.14947
v 0.02664 1.06988 -0.15737
v 0.00000 1.06996 -0.15997
v -0.02664 1.06988 -0.15737
v -0.05284 1.06966 -0.14947
v -0.07793 1.06932 -0.13605
v -0.10090 1.06895 -0.11700
v -0.12046 1.06861 -0.09265
v -0.13516 1.06838 -0.06391
v -0.14376 1.06834 -0.03234
v -0.14546 1.06851 -0.00000
v -0.14196 1.06863 0.03163
v -0.13183 1.06895 0.06116
v -0.11611 1.06942 0.08689
v -0.09619 1.06996 0.10773
v -0.07357 1.07049 0.12332
v -0.04950 1.07093 0.13385
v -0.02484 1.07121 0.13985
v 0.00000 1.04538 0.28129
v 0.04927 1.04499 0.27742
v 0.09817 1.04386 0.26546
v 0.14584 1.04212 0.24446
v 0.19059 1.04003 0.21346
v 0.22993 1.03788 0.17207
v 0.26097 1.03602 0.12107
v 0.28092 1.03475 0.06258
v 0.28782 1.03430 0.00000
v 0.28441 1.03359 -0.06398
v 0.26742 1.03377 -0.12644
v 0.23837 1.03467 -0.18335
v 0.19974 1.03602 -0.23162
v 0.15431 1.03751 -0.26941
v 0.10467 1.03882 -0.29608
v 0.05279 1.03972 -0.31180
v 0.00000 1.04003 -0.31697
v -0.05279 1.03972 -0.31180
v -0.10467 1.03882 -0.29608
v -0.15431 1.03751 -0.26941
v -0.19974 1.03602 -0.23162
v -0.23837 1.03467 -0.18335
v -0.26742 1.03377 -0.12644
v -0.28441 1.03359 -0.06398
v -0.28782 1.03430 -0.00000
v -0.28092 1.03475 0.06258
v -0.26097 1.03602 0.12107
v -0.22993 1.03788 0.17207
v -0.19059 1.04003 0.21346
v -0.14584 1.04212 0.24446
v -0.09817 1.04386 0.26546
v -0.04927 1.04499 0.27742
v 0.00000 1.00264 0.41626
v 0.07290 1.00176 0.41048
v 0.14520 0.99924 0.39260
v 0.21555 0.99541 0.36130
v 0.28144 0.99077 0.31522
v 0.33926 0.98601 0.25389
v 0.38476 0.98188 0.17850
v 0.41398 0.97908 0.09223
v 0.42406 0.97809 0.00000
v 0.41892 0.97653 -0.09424
v 0.39392 0.97691 -0.18624
v 0.35126 0.97889 -0.27017
v 0.29449 0.98188 -0.34148
v 0.22764 0.98518 -0.39744
v 0.15449 0.98809 -0.43702
v 0.07794 0.99007 -0.46038
v 0.00000 0.99077 -0.46807
v -0.07794 0.99007 -0.46038
v -0.15449 0.98809 -0.43702
v -0.22764 0.98518 -0.39744
v -0.29449 0.98188 -0.34148
v -0.35126 0.97889 -0.27017
v -0.39392 0.97691 -0.18624
v -0.41892 0.97653 -0.09424
v -0.42406 0.97809 -0.00000
v -0.41398 0.97908 0.09223
v -0.38476 0.98188 0.17850
v -0.33926 0.98601 0.25389
v -0.28144 0.99077 0.31522
v -0.21555 0.99541 0.36130
v -0.14520 0.99924 0.39260
v -0.07290 1.00176 0.41048
v 0.00000 0.94376 0.54454
v 0.09535 0.94223 0.53686
v 0.18978 0.93784 0.51314
v 0.28145 0.93115 0.47177
v 0.36707 0.92308 0.41112
v 0.44194 0.91481 0.33073
v 0.50068 0.90765 0.23228
v 0.53831 0.90279 0.11993
v 0.55128 0.90107 0.00000
v 0.54438 0.89836 -0.12246
v 0.51194 0.89903 -0.24205
v 0.45674 0.90247 -0.35130
v 0.38321 0.90765 -0.44437
v 0.29648 0.91337 -0.51761
v 0.20135 0.91842 -0.56958
v 0.10163 0.92187 -0.60033
v 0.00000 0.92308 -0.61048
v -0.10163 0.92187 -0.60033
v -0.20135 0.91842 -0.56958
v -0.29648 0.91337 -0.51761
v -0.38321 0.90765 -0.44437
v -0.45674 0.90247 -0.35130
v -0.51194 0.89903 -0.24205
v -0.54438 0.89836 -0.12246
v -0.55128 0.90107 -0.00000
v -0.53831 0.90279 0.11993
v -0.50068 0.90765 0.23228
v -0.44194 0.91481 0.33073
v -0.36707 0.92308 0.41112
v -0.28145 0.93115 0.47177
v -0.18978 0.93784 0.51314
v -0.09535 0.94223 0.53686
v 0.00000 0.86969 0.66406
v 0.11624 0.86737 0.65450
v 0.23117 0.86068 0.62507
v 0.34240 0.85050 0.57394
v 0.44587 0.83824 0.49937
v 0.53595 0.82569 0.40109
v 0.60636 0.81485 0.28130
v 0.65130 0.80749 0.14510
v 0.66677 0.80489 0.00000
v 0.65809 0.80079 -0.14804
v 0.61895 0.80180 -0.29264
v 0.55257 0.80700 -0.42501
v 0.46408 0.81485 -0.53815
v 0.35945 0.82350 -0.62755
v 0.24435 0.83117 -0.69123
v 0.12342 0.83639 -0.72904
v 0.00000 0.83824 -0.74153
v -0.12342 0.83639 -0.72904
v -0.24435 0.83117 -0.69123
v -0.35945 0.82350 -0.62755
v -0.46408 0.81485 -0.53815
v -0.55257 0.80700 -0.42501
v -0.61895 0.80180 -0.29264
v -0.65809 0.80079 -0.14804
v -0.66677 0.80489 -0.00000
v -0.65130 0.80749 0.14510
v -0.60636 0.81485 0.28130
v -0.53595 0.82569 0.40109
v -0.44587 0.83824 0.49937
v -0.34240 0.85050 0.57394
v -0.23117 0.86068 0.62507
v -0.11624 0.86737 0.65450
v 0.00000 0.78163 0.77289
v 0.13524 0.77838 0.76149
v 0.26868 0.76906 0.72648
v 0.39732 0.75487 0.66599
v 0.51638 0.73781 0.57834
v 0.61947 0.72040 0.46359
v 0.69962 0.70536 0.32457
v 0.75058 0.69518 0.16722
v 0.76808 0.69158 0.00000
v 0.75757 0.68593 -0.17042
v 0.71264 0.68732 -0.33693
v 0.63675 0.69450 -0.48976
v 0.53546 0.70536 -0.62092
v 0.41531 0.71735 -0.72509
v 0.28268 0.72799 -0.79965
v 0.14290 0.73524 -0.84408
v 0.00000 0.73781 -0.85880
v -0.14290 0.73524 -0.84408
v -0.28268 0.72799 -0.79965
v -0.41531 0.71735 -0.72509
v -0.53546 0.70536 -0.62092
v -0.63675 0.69450 -0.48976
v -0.71264 0.68732 -0.33693
v -0.75757 0.68593 -0.17042
v -0.76808 0.69158 -0.00000
v -0.75058 0.69518 0.16722
v -0.69962 0.70536 0.32457
v -0.61947 0.72040 0.46359
v -0.51638 0.73781 0.57834
v -0.39732 0.75487 0.66599
v -0.26868 0.76906 0.72648
v -0.13524 0.77838 0.76149
v 0.00000 0.68100 0.86928
v 0.15204 0.67674 0.85608
v 0.30167 0.66451 0.81569
v 0.44525 0.64595 0.74632
v 0.57729 0.62367 0.64657
v 0.69084 0.60098 0.51700
v 0.77856 0.58144 0.36119
v 0.83406 0.56823 0.18581
v 0.85305 0.56357 0.00000
v 0.84069 0.55625 -0.18912
v 0.79099 0.55804 -0.37398
v 0.70750 0.56735 -0.54417
v 0.59588 0.58144 -0.69099
v 0.46297 0.59702 -0.80828
v 0.31559 0.61086 -0.89274
v 0.15970 0.62032 -0.94331
v 0.00000 0.62367 -0.96010
v -0.15970 0.62032 -0.94331
v -0.31559 0.61086 -0.89274
v -0.46297 0.59702 -0.80828
v -0.59588 0.58144 -0.69099
v -0.70750 0.56735 -0.54417
v -0.79099 0.55804 -0.37398
v -0.84069 0.55625 -0.18912
v -0.85305 0.56357 -0.00000
v -0.83406 0.56823 0.18581
v -0.77856 0.58144 0.36119
v -0.69084 0.60098 0.51700
v -0.57729 0.62367 0.64657
v -0.44525 0.64595 0.74632
v -0.30167 0.66451 0.81569
v -0.15204 0.67674 0.85608
v 0.00000 0.56940 0.95169
v 0.16637 0.56407 0.93675
v 0.32960 0.54879 0.89120
v 0.48533 0.52564 0.81350
v 0.62747 0.49793 0.70277
v 0.74868 0.46979 0.56029
v 0.84157 0.44562 0.39042
v 0.89996 0.42932 0.20050
v 0.91988 0.42357 0.00000
v 0.90566 0.41455 -0.20373
v 0.85232 0.41676 -0.40297
v 0.76331 0.42823 -0.58710
v 0.64411 0.44562 -0.74691
v 0.50147 0.46489 -0.87550
v 0.34245 0.48204 -0.96873
v 0.17351 0.49377 -1.02486
v 0.00000 0.49793 -1.04356
v -0.17351 0.49377 -1.02486
v -0.34245 0.48204 -0.96873
v -0.50147 0.46489 -0.87550
v -0.64411 0.44562 -0.74691
v -0.76331 0.42823 -0.58710
v -0.85232 0.41676 -0.40297
v -0.90566 0.41455 -0.20373
v -0.91988 0.42357 -0.00000
v -0.89996 0.42932 0.20050
v -0.84157 0.44562 0.39042
v -0.74868 0.46979 0.56029
v -0.62747 0.49793 0.70277
v -0.48533 0.52564 0.81350
v -0.32960 0.54879 0.89120
v -0.16637 0.56407 0.93675
v 0.00000 0.44865 1.01879
v 0.17799 0.44223 1.00217
v 0.35198 0.42386 0.95173
v 0.51686 0.39608 0.86636
v 0.66598 0.36293 0.74590
v 0.79185 0.32939 0.59259
v 0.88735 0.30068 0.41166
v 0.94692 0.28136 0.21096
v 0.96715 0.27456 0.00000
v 0.95106 0.26389 -0.21394
v 0.89531 0.26651 -0.42330
v 0.80302 0.28008 -0.61764
v 0.67915 0.30068 -0.78754
v 0.53005 0.32356 -0.92541
v 0.36275 0.34398 -1.02617
v 0.18406 0.35797 -1.08721
v 0.00000 0.36293 -1.10761
v -0.18406 0.35797 -1.08721
v -0.36275 0.34398 -1.02617
v -0.53005 0.32356 -0.92541
v -0.67915 0.30068 -0.78754
v -0.80302 0.28008 -0.61764
v -0.89531 0.26651 -0.42330
v -0.95106 0.26389 -0.21394
v -0.96715 0.27456 -0.00000
v -0.94692 0.28136 0.21096
v -0.88735 0.30068 0.41166
v -0.79185 0.32939 0.59259
v -0.66598 0.36293 0.74590
v -0.51686 0.39608 0.86636
v -0.35198 0.42386 0.95173
v -0.17799 0.44223 1.00217
v 0.00000 0.32067 1.06949
v 0.18671 0.31319 1.05128
v 0.36845 0.29180 0.99626
v 0.53929 0.25955 0.90395
v 0.69212 0.22119 0.77517
v 0.81951 0.18254 0.61329
v 0.91498 0.14958 0.42447
v 0.97393 0.12748 0.21697
v 0.99384 0.11971 0.00000
v 0.97591 0.10754 -0.21954
v 0.91903 0.11053 -0.43451
v 0.82579 0.12601 -0.63516
v 0.70029 0.14958 -0.81206
v 0.54816 0.17584 -0.95702
v 0.37611 0.19933 -1.06395
v 0.19117 0.21546 -1.12918
v 0.00000 0.22119 -1.15107
v -0.19117 0.21546 -1.12918
v -0.37611 0.19933 -1.06395
v -0.54816 0.17584 -0.95702
v -0.70029 0.14958 -0.81206
v -0.82579 0.12601 -0.63516
v -0.91903 0.11053 -0.43451
v -0.97591 0.10754 -0.21954
v -0.99384 0.11971 -0.00000
v -0.97393 0.12748 0.21697
v -0.91498 0.14958 0.42447
v -0.81951 0.18254 0.61329
v -0.69212 0.22119 0.77517
v -0.53929 0.25955 0.90395
v -0.36845 0.29180 0.99626
v -0.18671 0.31319 1.05128
v 0.00000 0.18754 1.10298
v 0.19239 0.17906 1.08328
v 0.37873 0.15483 1.02406
v 0.55222 0.11844 0.92563
v 0.70538 0.07534 0.79003
v 0.83110 0.03211 0.62196
v 0.92387 -0.00457 0.42860
v 0.98043 -0.02909 0.21842
v 0.99939 -0.03769 0.00000
v 0.97969 -0.05114 -0.22039
v 0.92297 -0.04784 -0.43638
v 0.83113 -0.03071 -0.63926
v 0.70710 -0.00457 -0.81995
v 0.55543 0.02464 -0.96971
v 0.38226 0.05086 -1.08134
v 0.19469 0.06892 -1.15000
v 0.00000 0.07534 -1.17314
v -0.19469 0.06892 -1.15000
v -0.38226 0.05086 -1.08134
v -0.55543 0.02464 -0.96971
v -0.70710 -0.00457 -0.81995
v -0.83113 -0.03071 -0.63926
v -0.92297 -0.04784 -0.43638
v -0.97969 -0.05114 -0.22039
v -0.99939 -0.03769 -0.00000
v -0.98043 -0.02909 0.21842
v -0.92387 -0.00457 0.42860
v -0.83110 0.03211 0.62196
v -0.70538 0.07534 0.79003
v -0.55222 0.11844 0.92563
v -0.37873 0.15483 1.02406
v -0.19239 0.17906 1.08328
v 0.00000 0.18754 1.10298
v 0.19239 0.17906 1.08328
v 0.37873 0.15483 1.02406
v 0.55222 0.11844 0.92563
v 0.70538 0.07534 0.79003
v 0.83110 0.03211 0.62196
v 0.92387 -0.00457 0.42860
v 0.98043 -0.02909 0.21842
v 0.99939 -0.03769 0.00000
v 0.97969 -0.05114 -0.22039
v 0.92297 -0.04784 -0.43638
v 0.83113 -0.03071 -0.63926
v 0.70710 -0.00457 -0.81995
v 0.55543 0.02464 -0.96971
v 0.38226 0.05086 -1.08134
v 0.19469 0.06892 -1.15000
v 0.00000 0.07534 -1.17314
v -0.19469 0.06892 -1.15000
v -0.38226 0.05086 -1.08134
v -0.55543 0.02464 -0.96971
v -0.70710 -0.00457 -0.81995
v -0.83113 -0.03071 -0.63926
v -0.92297 -0.04784 -0.43638
v -0.97969 -0.05114 -0.22039
v -0.99939 -0.03769 -0.00000
v -0.98043 -0.02909 0.21842
v -0.92387 -0.00457 0.42860
v -0.83110 0.03211 0.62196
v -0.70538 0.07534 0.79003
v -0.55222 0.11844 0.92563
v -0.37873 0.15483 1.02406
v -0.19239 0.17906 1.08328
v 0.00000 0.19785 1.16365
v 0.20297 0.18890 1.14286
v 0.39956 0.16335 1.08038
v 0.58259 0.12495 0.97654
v 0.74418 0.07948 0.83348
v 0.87681 0.03388 0.65617
v 0.97468 -0.00483 0.45217
v 1.03435 -0.03069 0.23044
v 1.05436 -0.03976 0.00000
v 1.03357 -0.05395 -0.23251
v 0.97374 -0.05047 -0.46038
v 0.87685 -0.03240 -0.67442
v 0.74599 -0.00483 -0.86505
v 0.58597 0.02599 -1.02304
v 0.40328 0.05366 -1.14082
v 0.20540 0.07271 -1.21325
v 0.00000 0.07948 -1.23766
v -0.20540 0.07271 -1.21325
v -0.40328 0.05366 -1.14082
v -0.58597 0.02599 -1.02304
v -0.74599 -0.00483 -0.86505
v -0.87685 -0.03240 -0.67442
v -0.97374 -0.05047 -0.46038
v -1.03357 -0.05395 -0.23251
v -1.05436 -0.03976 -0.00000
v -1.03435 -0.03069 0.23044
v -0.97468 -0.00483 0.45217
v -0.87681 0.03388 0.65617
v -0.74418 0.07948 0.83348
v -0.58259 0.12495 0.97654
v -0.39956 0.16335 1.08038
v -0.20297 0.18890 1.14286
v 0.00000 0.15154 1.19370
v 0.20814 0.14236 1.17195
v 0.40932 0.11617 1.10677
v 0.59593 0.07687 0.99889
v 0.75988 0.03039 0.85106
v 0.89374 -0.01613 0.66884
v 0.99203 -0.05555 0.46022
v 1.05172 -0.08186 0.23430
v 1.07169 -0.09109 0.00000
v 1.04998 -0.10550 -0.23620
v 0.98933 -0.10197 -0.46775
v 0.89151 -0.08361 -0.68570
v 0.75927 -0.05555 -0.88045
v 0.59711 -0.02417 -1.04248
v 0.41138 0.00404 -1.16373
v 0.20968 0.02347 -1.23852
v 0.00000 0.03039 -1.26377
v -0.20968 0.02347 -1.23852
v -0.41138 0.00404 -1.16373
v -0.59711 -0.02417 -1.04248
v -0.75927 -0.05555 -0.88045
v -0.89151 -0.08361 -0.68570
v -0.98933 -0.10197 -0.46775
v -1.04998 -0.10550 -0.23620
v -1.07169 -0.09109 -0.00000
v -1.05172 -0.08186 0.23430
v -0.99203 -0.05555 0.46022
v -0.89374 -0.01613 0.66884
v -0.75988 0.03039 0.85106
v -0.59593 0.07687 0.99889
v -0.40932 0.11617 1.10677
v -0.20814 0.14236 1.17195
v 0.00000 -0.09109 1.20029
v 0.20894 -0.10031 1.17645
v 0.40893 -0.12654 1.10572
v 0.59113 -0.16567 0.99084
v 0.74741 -0.21158 0.83710
v 0.87163 -0.25714 0.65229
v 0.96047 -0.29545 0.44558
v 1.01328 -0.32086 0.22574
v 1.03073 -0.32974 0.00000
v 1.00712 -0.34358 -0.22656
v 0.94958 -0.34019 -0.44896
v 0.85865 -0.32254 -0.66043
v 0.73511 -0.29545 -0.85244
v 0.58148 -0.26497 -1.01519
v 0.40269 -0.23743 -1.13914
v 0.20598 -0.21837 -1.21666
v 0.00000 -0.21158 -1.24303
v -0.20598 -0.21837 -1.21666
v -0.40269 -0.23743 -1.13914
v -0.58148 -0.26497 -1.01519
v -0.73511 -0.29545 -0.85244
v -0.85865 -0.32254 -0.66043
v -0.94958 -0.34019 -0.44896
v -1.00712 -0.34358 -0.22656
v -1.03073 -0.32974 -0.00000
v -1.01328 -0.32086 0.22574
v -0.96047 -0.29545 0.44558
v -0.87163 -0.25714 0.65229
v -0.74741 -0.21158 0.83710
v -0.59113 -0.16567 0.99084
v -0.40893 -0.12654 1.10572
v -0.20894 -0.10031 1.17645
v 0.00000 -0.13820 1.16723
v 0.20311 -0.14717 1.14365
v 0.39713 -0.17265 1.07382
v 0.57320 -0.21062 0.96079
v 0.72343 -0.25509 0.81024
v 0.84212 -0.29916 0.63021
v 0.92648 -0.33614 0.42981
v 0.97636 -0.36064 0.21752
v 0.99279 -0.36919 0.00000
v 0.96947 -0.38252 -0.21809
v 0.91421 -0.37926 -0.43224
v 0.82730 -0.36225 -0.63632
v 0.70909 -0.33614 -0.82226
v 0.56161 -0.30672 -0.98050
v 0.38937 -0.28011 -1.10145
v 0.19932 -0.26167 -1.17731
v 0.00000 -0.25509 -1.20315
v -0.19932 -0.26167 -1.17731
v -0.38937 -0.28011 -1.10145
v -0.56161 -0.30672 -0.98050
v -0.70909 -0.33614 -0.82226
v -0.82730 -0.36225 -0.63632
v -0.91421 -0.37926 -0.43224
v -0.96947 -0.38252 -0.21809
v -0.99279 -0.36919 -0.00000
v -0.97636 -0.36064 0.21752
v -0.92648 -0.33614 0.42981
v -0.84212 -0.29916 0.63021
v -0.72343 -0.25509 0.81024
v -0.57320 -0.21062 0.96079
v -0.39713 -0.17265 1.07382
v -0.20311 -0.14717 1.14365
v 0.00000 -0.14429 1.06474
v 0.18525 -0.15247 1.04307
v 0.36206 -0.17571 0.97899
v 0.52226 -0.21032 0.87541
v 0.65866 -0.25082 0.73770
v 0.76614 -0.29093 0.57335
v 0.84235 -0.32456 0.39078
v 0.88731 -0.34683 0.19768
v 0.90210 -0.35461 0.00000
v 0.88069 -0.36672 -0.19812
v 0.83055 -0.36375 -0.39268
v 0.75182 -0.34830 -0.57826
v 0.64470 -0.32456 -0.74760
v 0.51087 -0.29781 -0.89192
v 0.35435 -0.27359 -1.00241
v 0.18145 -0.25682 -1.07178
v 0.00000 -0.25082 -1.09543
v -0.18145 -0.25682 -1.07178
v -0.35435 -0.27359 -1.00241
v -0.51087 -0.29781 -0.89192
v -0.64470 -0.32456 -0.74760
v -0.75182 -0.34830 -0.57826
v -0.83055 -0.36375 -0.39268
v -0.88069 -0.36672 -0.19812
v -0.90210 -0.35461 -0.00000
v -0.88731 -0.34683 0.19768
v -0.84235 -0.32456 0.39078
v -0.76614 -0.29093 0.57335
v -0.65866 -0.25082 0.73770
v -0.52226 -0.21032 0.87541
v -0.36206 -0.17571 0.97899
v -0.18525 -0.15247 1.04307
v 0.00000 0.03581 1.06335
v 0.18527 0.02763 1.04318
v 0.36355 0.00434 0.98300
v 0.52756 -0.03051 0.88429
v 0.67012 -0.07157 0.75053
v 0.78513 -0.11252 0.58756
v 0.86862 -0.14709 0.40297
v 0.91885 -0.17010 0.20470
v 0.93557 -0.17816 0.00000
v 0.91550 -0.19074 -0.20595
v 0.86288 -0.18766 -0.40797
v 0.77877 -0.17163 -0.59899
v 0.66481 -0.14709 -0.77091
v 0.52420 -0.11957 -0.91518
v 0.36199 -0.09478 -1.02402
v 0.18480 -0.07767 -1.09159
v 0.00000 -0.07157 -1.11448
v -0.18480 -0.07767 -1.09159
v -0.36199 -0.09478 -1.02402
v -0.52420 -0.11957 -0.91518
v -0.66481 -0.14709 -0.77091
v -0.77877 -0.17163 -0.59899
v -0.86288 -0.18766 -0.40797
v -0.91550 -0.19074 -0.20595
v -0.93557 -0.17816 -0.00000
v -0.91885 -0.17010 0.20470
v -0.86862 -0.14709 0.40297
v -0.78513 -0.11252 0.58756
v -0.67012 -0.07157 0.75053
v -0.52756 -0.03051 0.88429
v -0.36355 0.00434 0.98300
v -0.18527 0.02763 1.04318
v 0.11462 0.02536 1.19134
v 0.13356 -0.00754 1.18961
v 0.17125 -0.00754 1.18477
v 0.19001 0.02536 1.18166
v 0.17107 0.05826 1.18339
v 0.13338 0.05826 1.18823
v 0.12734 0.02591 1.21581
v 0.14154 0.00123 1.21452
v 0.16981 0.00123 1.21089
v 0.18388 0.02591 1.20855
v 0.16968 0.05059 1.20985
v 0.14141 0.05059 1.21348
v 0.15682 0.02611 1.22160
v 0.40947 -0.01152 1.10486
v 0.42695 -0.04443 1.09739
v 0.46213 -0.04443 1.08304
v 0.47985 -0.01152 1.07617
v 0.46238 0.02139 1.08364
v 0.42719 0.02139 1.09798
v 0.42805 -0.01177 1.12526
v 0.44115 -0.03645 1.11965
v 0.46754 -0.03645 1.10889
v 0.48083 -0.01177 1.10373
v 0.46773 0.01291 1.10934
v 0.44134 0.01291 1.12010
v 0.45803 -0.01186 1.12329
v 0.66944 -0.07351 0.92739
v 0.68318 -0.10635 0.91409
v 0.71323 -0.10635 0.89084
v 0.72955 -0.07351 0.88088
v 0.71582 -0.04067 0.89418
v 0.68576 -0.04067 0.91743
v 0.69277 -0.07517 0.94202
v 0.70307 -0.09980 0.93204
v 0.72561 -0.09980 0.91460
v 0.73785 -0.07517 0.90714
v 0.72755 -0.05054 0.91711
v 0.70501 -0.05054 0.93455
v 0.72111 -0.07578 0.93208
v 0.87140 -0.14071 0.67403
v 0.87911 -0.17335 0.65618
v 0.90131 -0.17335 0.62533
v 0.91579 -0.14071 0.61235
v 0.90808 -0.10806 0.63021
v 0.88588 -0.10806 0.66105
v 0.89780 -0.14399 0.68133
v 0.90358 -0.16847 0.66794
v 0.92023 -0.16847 0.64481
v 0.93110 -0.14399 0.63507
v 0.92531 -0.11951 0.64846
v 0.90866 -0.11951 0.67159
v 0.92210 -0.14519 0.66371
v 1.00062 -0.19168 0.36907
v 1.00102 -0.22407 0.34920
v 1.01290 -0.22407 0.31310
v 1.02436 -0.19168 0.29687
v 1.02396 -0.15930 0.31674
v 1.01209 -0.15930 0.35284
v 1.02780 -0.19627 0.36801
v 1.02811 -0.22056 0.35311
v 1.03701 -0.22056 0.32603
v 1.04561 -0.19627 0.31386
v 1.04531 -0.17198 0.32876
v 1.03641 -0.17198 0.35584
v 1.04559 -0.19795 0.34385
v 1.05210 -0.21059 0.03800
v 1.04564 -0.24286 0.01900
v 1.04564 -0.24286 -0.01900
v 1.05210 -0.21059 -0.03800
v 1.05856 -0.17833 -0.01900
v 1.05856 -0.17833 0.01900
v 1.07749 -0.21568 0.02850
v 1.07265 -0.23988 0.01425
v 1.07265 -0.23988 -0.01425
v 1.07749 -0.21568 -0.02850
v 1.08234 -0.19148 -0.01425
v 1.08234 -0.19148 0.01425
v 1.08681 -0.21754 0.00000
v 1.01906 -0.22522 -0.29979
v 1.00657 -0.25741 -0.31566
v 0.99455 -0.25741 -0.35170
v 0.99502 -0.22522 -0.37189
v 1.00751 -0.19303 -0.35603
v 1.01953 -0.19303 -0.31998
v 1.04009 -0.23060 -0.31682
v 1.03072 -0.25474 -0.32872
v 1.02171 -0.25474 -0.35575
v 1.02206 -0.23060 -0.37089
v 1.03142 -0.20645 -0.35900
v 1.04044 -0.20645 -0.33196
v 1.03989 -0.23257 -0.34680
v 0.90859 -0.20540 -0.62441
v 0.89245 -0.23776 -0.63610
v 0.86986 -0.23776 -0.66666
v 0.86341 -0.20540 -0.68552
v 0.87956 -0.17305 -0.67383
v 0.90214 -0.17305 -0.64327
v 0.92342 -0.21015 -0.64718
v 0.91131 -0.23441 -0.65595
v 0.89437 -0.23441 -0.67887
v 0.88953 -0.21015 -0.69302
v 0.90164 -0.18589 -0.68425
v 0.91858 -0.18589 -0.66133
v 0.91398 -0.21189 -0.67565
v 0.72432 -0.16450 -0.90802
v 0.70633 -0.19709 -0.91567
v 0.67586 -0.19709 -0.93838
v 0.66339 -0.16450 -0.95344
v 0.68138 -0.13192 -0.94579
v 0.71185 -0.13192 -0.92307
v 0.73203 -0.16814 -0.93425
v 0.71853 -0.19257 -0.93999
v 0.69569 -0.19257 -0.95703
v 0.68633 -0.16814 -0.96832
v 0.69983 -0.14370 -0.96258
v 0.72267 -0.14370 -0.94555
v 0.71480 -0.16947 -0.95883
v 0.47770 -0.12144 -1.12023
v 0.45881 -0.15418 -1.12409
v 0.42341 -0.15418 -1.13790
v 0.40689 -0.12144 -1.14785
v 0.42578 -0.08869 -1.14399
v 0.46118 -0.08869 -1.13018
v 0.47821 -0.12401 -1.14770
v 0.46404 -0.14857 -1.15059
v 0.43749 -0.14857 -1.16095
v 0.42511 -0.12401 -1.16841
v 0.43927 -0.09945 -1.16551
v 0.46582 -0.09945 -1.15516
v 0.45509 -0.12495 -1.16686
v 0.18959 -0.09439 -1.23699
v 0.17043 -0.12721 -1.23684
v 0.13271 -0.12721 -1.24145
v 0.11415 -0.09439 -1.24622
v 0.13331 -0.06157 -1.24637
v 0.17103 -0.06157 -1.24175
v 0.18330 -0.09634 -1.26378
v 0.16893 -0.12095 -1.26367
v 0.14064 -0.12095 -1.26713
v 0.12672 -0.09634 -1.27070
v 0.14109 -0.07173 -1.27081
v 0.16938 -0.07173 -1.26735
v 0.15616 -0.09705 -1.27664
v -0.11415 -0.09439 -1.24622
v -0.13271 -0.12721 -1.24145
v -0.17043 -0.12721 -1.23684
v -0.18959 -0.09439 -1.23699
v -0.17103 -0.06157 -1.24175
v -0.13331 -0.06157 -1.24637
v -0.12672 -0.09634 -1.27070
v -0.14064 -0.12095 -1.26713
v -0.16893 -0.12095 -1.26367
v -0.18330 -0.09634 -1.26378
v -0.16938 -0.07173 -1.26735
v -0.14109 -0.07173 -1.27081
v -0.15616 -0.09705 -1.27664
v -0.40689 -0.12144 -1.14785
v -0.42341 -0.15418 -1.13790
v -0.45881 -0.15418 -1.12409
v -0.47770 -0.12144 -1.12023
v -0.46118 -0.08869 -1.13018
v -0.42578 -0.08869 -1.14399
v -0.42511 -0.12401 -1.16841
v -0.43749 -0.14857 -1.16095
v -0.46404 -0.14857 -1.15059
v -0.47821 -0.12401 -1.14770
v -0.46582 -0.09945 -1.15516
v -0.43927 -0.09945 -1.16551
v -0.45509 -0.12495 -1.16686
v -0.66339 -0.16450 -0.95344
v -0.67586 -0.19709 -0.93838
v -0.70633 -0.19709 -0.91567
v -0.72432 -0.16450 -0.90802
v -0.71185 -0.13192 -0.92307
v -0.68138 -0.13192 -0.94579
v -0.68633 -0.16814 -0.96832
v -0.69569 -0.19257 -0.95703
v -0.71853 -0.19257 -0.93999
v -0.73203 -0.16814 -0.93425
v -0.72267 -0.14370 -0.94555
v -0.69983 -0.14370 -0.96258
v -0.71480 -0.16947 -0.95883
v -0.86341 -0.20540 -0.68552
v -0.86986 -0.23776 -0.66666
v -0.89245 -0.23776 -0.63610
v -0.90859 -0.20540 -0.62441
v -0.90214 -0.17305 -0.64327
v -0.87956 -0.17305 -0.67383
v -0.88953 -0.21015 -0.69302
v -0.89437 -0.23441 -0.67887
v -0.91131 -0.23441 -0.65595
v -0.92342 -0.21015 -0.64718
v -0.91858 -0.18589 -0.66133
v -0.90164 -0.18589 -0.68425
v -0.91398 -0.21189 -0.67565
v -0.99502 -0.22522 -0.37189
v -0.99455 -0.25741 -0.35170
v -1.00657 -0.25741 -0.31566
v -1.01906 -0.22522 -0.29979
v -1.01953 -0.19303 -0.31998
v -1.00751 -0.19303 -0.35603
v -1.02206 -0.23060 -0.37089
v -1.02171 -0.25474 -0.35575
v -1.03072 -0.25474 -0.32872
v -1.04009 -0.23060 -0.31682
v -1.04044 -0.20645 -0.33196
v -1.03142 -0.20645 -0.35900
v -1.03989 -0.23257 -0.34680
v -1.05210 -0.21059 -0.03800
v -1.04564 -0.24286 -0.01900
v -1.04564 -0.24286 0.01900
v -1.05210 -0.21059 0.03800
v -1.05856 -0.17833 0.01900
v -1.05856 -0.17833 -0.01900
v -1.07749 -0.21568 -0.02850
v -1.07265 -0.23988 -0.01425
v -1.07265 -0.23988 0.01425
v -1.07749 -0.21568 0.02850
v -1.08234 -0.19148 0.01425
v -1.08234 -0.19148 -0.01425
v -1.08681 -0.21754 -0.00000
v -1.02436 -0.19168 0.29687
v -1.01290 -0.22407 0.31310
v -1.00102 -0.22407 0.34920
v -1.00062 -0.19168 0.36907
v -1.01209 -0.15930 0.35284
v -1.02396 -0.15930 0.31674
v -1.04561 -0.19627 0.31386
v -1.03701 -0.22056 0.32603
v -1.02811 -0.22056 0.35311
v -1.02780 -0.19627 0.36801
v -1.03641 -0.17198 0.35584
v -1.04531 -0.17198 0.32876
v -1.04559 -0.19795 0.34385
v -0.91579 -0.14071 0.61235
v -0.90131 -0.17335 0.62533
v -0.87911 -0.17335 0.65618
v -0.87140 -0.14071 0.67403
v -0.88588 -0.10806 0.66105
v -0.90808 -0.10806 0.63021
v -0.93110 -0.14399 0.63507
v -0.92023 -0.16847 0.64481
v -0.90358 -0.16847 0.66794
v -0.89780 -0.14399 0.68133
v -0.90866 -0.11951 0.67159
v -0.92531 -0.11951 0.64846
v -0.92210 -0.14519 0.66371
v -0.72955 -0.07351 0.88088
v -0.71323 -0.10635 0.89084
v -0.68318 -0.10635 0.91409
v -0.66944 -0.07351 0.92739
v -0.68576 -0.04067 0.91743
v -0.71582 -0.04067 0.89418
v -0.73785 -0.07517 0.90714
v -0.72561 -0.09980 0.91460
v -0.70307 -0.09980 0.93204
v -0.69277 -0.07517 0.94202
v -0.70501 -0.05054 0.93455
v -0.72755 -0.05054 0.91711
v -0.72111 -0.07578 0.93208
v -0.47985 -0.01152 1.07617
v -0.46213 -0.04443 1.08304
v -0.42695 -0.04443 1.09739
v -0.40947 -0.01152 1.10486
v -0.42719 0.02139 1.09798
v -0.46238 0.02139 1.08364
v -0.48083 -0.01177 1.10373
v -0.46754 -0.03645 1.10889
v -0.44115 -0.03645 1.11965
v -0.42805 -0.01177 1.12526
v -0.44134 0.01291 1.12010
v -0.46773 0.01291 1.10934
v -0.45803 -0.01186 1.12329
v -0.19001 0.02536 1.18166
v -0.17125 -0.00754 1.18477
v -0.13356 -0.00754 1.18961
v -0.11462 0.02536 1.19134
v -0.13338 0.05826 1.18823
v -0.17107 0.05826 1.18339
v -0.18388 0.02591 1.20855
v -0.16981 0.00123 1.21089
v -0.14154 0.00123 1.21452
v -0.12734 0.02591 1.21581
v -0.14141 0.05059 1.21348
v -0.16968 0.05059 1.20985
v -0.15682 0.02611 1.22160
v -0.01800 0.22230 -1.13880
v -0.01200 0.22273 -1.14101
v 0.00000 0.22326 -1.14371
v 0.01200 0.22273 -1.14101
v 0.01800 0.22230 -1.13880
v -0.03266 0.28933 -1.12080
v -0.02177 0.29270 -1.13386
v 0.00000 0.29682 -1.14983
v 0.02177 0.29270 -1.13386
v 0.03266 0.28933 -1.12080
v -0.04018 0.35515 -1.09814
v -0.02678 0.35902 -1.11013
v 0.00000 0.36376 -1.12478
v 0.02678 0.35902 -1.11013
v 0.04018 0.35515 -1.09814
v -0.04620 0.41949 -1.07089
v -0.03080 0.42819 -1.09312
v 0.00000 0.43883 -1.12028
v 0.03080 0.42819 -1.09312
v 0.04620 0.41949 -1.07089
v -0.05137 0.48208 -1.03918
v -0.03424 0.49800 -1.07351
v 0.00000 0.51746 -1.11546
v 0.03424 0.49800 -1.07351
v 0.05137 0.48208 -1.03918
v -0.05593 0.54266 -1.00314
v -0.03729 0.55757 -1.03070
v 0.00000 0.57579 -1.06438
v 0.03729 0.55757 -1.03070
v 0.05593 0.54266 -1.00314
v -0.06003 0.60098 -0.96292
v -0.04002 0.61256 -0.98147
v 0.00000 0.62670 -1.00414
v 0.04002 0.61256 -0.98147
v 0.06003 0.60098 -0.96292
v -0.06373 0.65679 -0.91868
v -0.04248 0.67849 -0.94903
v 0.00000 0.70501 -0.98612
v 0.04248 0.67849 -0.94903
v 0.06373 0.65679 -0.91868
v -0.06707 0.70987 -0.87062
v -0.04471 0.74437 -0.91293
v 0.00000 0.78653 -0.96464
v 0.04471 0.74437 -0.91293
v 0.06707 0.70987 -0.87062
v -0.07010 0.75999 -0.81892
v -0.04673 0.78869 -0.84985
v 0.00000 0.82377 -0.88765
v 0.04673 0.78869 -0.84985
v 0.07010 0.75999 -0.81892
v -0.07283 0.80694 -0.76381
v -0.04855 0.82715 -0.78295
v 0.00000 0.85186 -0.80633
v 0.04855 0.82715 -0.78295
v 0.07283 0.80694 -0.76381
v -0.07527 0.85052 -0.70552
v -0.05018 0.88605 -0.73498
v 0.00000 0.92947 -0.77100
v 0.05018 0.88605 -0.73498
v 0.07527 0.85052 -0.70552
v -0.07744 0.89056 -0.64428
v -0.05163 0.94375 -0.68276
v 0.00000 1.00876 -0.72980
v 0.05163 0.94375 -0.68276
v 0.07744 0.89056 -0.64428
v -0.07934 0.92689 -0.58036
v -0.05290 0.96865 -0.60651
v 0.00000 1.01970 -0.63848
v 0.05290 0.96865 -0.60651
v 0.07934 0.92689 -0.58036
v -0.08098 0.95935 -0.51402
v -0.05399 0.98724 -0.52896
v 0.00000 1.02133 -0.54723
v 0.05399 0.98724 -0.52896
v 0.08098 0.95935 -0.51402
v -0.08237 0.98781 -0.44554
v -0.05491 1.03485 -0.46675
v 0.00000 1.09234 -0.49268
v 0.05491 1.03485 -0.46675
v 0.08237 0.98781 -0.44554
v -0.08350 1.01216 -0.37519
v -0.05567 1.07978 -0.40026
v 0.00000 1.16242 -0.43090
v 0.05567 1.07978 -0.40026
v 0.08350 1.01216 -0.37519
v -0.08437 1.03228 -0.30329
v -0.05625 1.08327 -0.31827
v 0.00000 1.14558 -0.33658
v 0.05625 1.08327 -0.31827
v 0.08437 1.03228 -0.30329
v -0.08500 1.04811 -0.23012
v -0.05667 1.08084 -0.23731
v 0.00000 1.12085 -0.24609
v 0.05667 1.08084 -0.23731
v 0.08500 1.04811 -0.23012
v -0.08538 1.05956 -0.15599
v -0.05692 1.11289 -0.16384
v 0.00000 1.17807 -0.17344
v 0.05692 1.11289 -0.16384
v 0.08538 1.05956 -0.15599
v -0.08550 1.06660 -0.08121
v -0.05700 1.14063 -0.08685
v 0.00000 1.23112 -0.09374
v 0.05700 1.14063 -0.08685
v 0.08550 1.06660 -0.08121
v -0.08538 1.06919 -0.00610
v -0.05692 1.12309 -0.00640
v 0.00000 1.18897 -0.00678
v 0.05692 1.12309 -0.00640
v 0.08538 1.06919 -0.00610
v -0.08500 1.06732 0.06576
v -0.05667 1.10077 0.06782
v 0.00000 1.14166 0.07034
v 0.05667 1.10077 0.06782
v 0.08500 1.06732 0.06576
v -0.08437 1.06100 0.13705
v -0.05625 1.11370 0.14386
v 0.00000 1.17811 0.15218
v 0.05625 1.11370 0.14386
v 0.08437 1.06100 0.13705
v -0.08350 1.05026 0.20777
v -0.05567 1.12101 0.22176
v 0.00000 1.20747 0.23887
v 0.05567 1.12101 0.22176
v 0.08350 1.05026 0.20777
v -0.08237 1.03514 0.27762
v -0.05491 1.08498 0.29099
v 0.00000 1.14589 0.30732
v 0.05491 1.08498 0.29099
v 0.08237 1.03514 0.27762
v -0.08098 1.01571 0.34632
v -0.05399 1.04566 0.35653
v 0.00000 1.08226 0.36901
v 0.05399 1.04566 0.35653
v 0.08098 1.01571 0.34632
v -0.07934 0.99204 0.41357
v -0.05290 1.03753 0.43253
v 0.00000 1.09312 0.45571
v 0.05290 1.03753 0.43253
v 0.07934 0.99204 0.41357
v -0.07744 0.96424 0.47910
v -0.05163 1.02303 0.50831
v 0.00000 1.09489 0.54401
v 0.05163 1.02303 0.50831
v 0.07744 0.96424 0.47910
v -0.07527 0.93242 0.54263
v -0.05018 0.97231 0.56584
v 0.00000 1.02107 0.59422
v 0.05018 0.97231 0.56584
v 0.07527 0.93242 0.54263
v -0.07283 0.89671 0.60390
v -0.04855 0.91979 0.61944
v 0.00000 0.94801 0.63845
v 0.04855 0.91979 0.61944
v 0.07283 0.89671 0.60390
v -0.07010 0.85726 0.66265
v -0.04673 0.89064 0.68845
v 0.00000 0.93144 0.71999
v 0.04673 0.89064 0.68845
v 0.07010 0.85726 0.66265
v -0.06707 0.81424 0.71864
v -0.04471 0.85517 0.75476
v 0.00000 0.90520 0.79891
v 0.04471 0.85517 0.75476
v 0.06707 0.81424 0.71864
v -0.06373 0.76782 0.77163
v -0.04248 0.79413 0.79807
v 0.00000 0.82630 0.83039
v 0.04248 0.79413 0.79807
v 0.06373 0.76782 0.77163
v -0.06003 0.71820 0.82140
v -0.04002 0.73259 0.83786
v 0.00000 0.75018 0.85798
v 0.04002 0.73259 0.83786
v 0.06003 0.71820 0.82140
v -0.05593 0.66559 0.86776
v -0.03729 0.68466 0.89262
v 0.00000 0.70797 0.92300
v 0.03729 0.68466 0.89262
v 0.05593 0.66559 0.86776
v -0.05137 0.61021 0.91049
v -0.03424 0.63127 0.94192
v 0.00000 0.65702 0.98034
v 0.03424 0.63127 0.94192
v 0.05137 0.61021 0.91049
v -0.04620 0.55228 0.94943
v -0.03080 0.56428 0.97006
v 0.00000 0.57895 0.99528
v 0.03080 0.56428 0.97006
v 0.04620 0.55228 0.94943
v -0.04018 0.49205 0.98441
v -0.02678 0.49768 0.99568
v 0.00000 0.50456 1.00945
v 0.02678 0.49768 0.99568
v 0.04018 0.49205 0.98441
v -0.03266 0.42976 1.01529
v -0.02177 0.43502 1.02771
v 0.00000 0.44145 1.04289
v 0.02177 0.43502 1.02771
v 0.03266 0.42976 1.01529
v -0.01800 0.36569 1.04193
v -0.01200 0.36643 1.04405
v 0.00000 0.36734 1.04665
v 0.01200 0.36643 1.04405
v 0.01800 0.36569 1.04193
v -0.15000 0.21692 1.13813
v -0.15000 0.21692 1.18813
v -0.06750 0.21692 1.20133
v 0.00000 0.21692 1.21013
v 0.06750 0.21692 1.20133
v 0.15000 0.21692 1.18813
v 0.15000 0.21692 1.13813
v -0.13937 0.12003 1.14983
v -0.13937 0.12003 1.19983
v -0.06272 0.12003 1.21303
v 0.00000 0.12003 1.22183
v 0.06272 0.12003 1.21303
v 0.13937 0.12003 1.19983
v 0.13937 0.12003 1.14983
v -0.12875 0.02314 1.16308
v -0.12875 0.02314 1.21308
v -0.05794 0.02314 1.22628
v 0.00000 0.02314 1.23508
v 0.05794 0.02314 1.22628
v 0.12875 0.02314 1.21308
v 0.12875 0.02314 1.16308
v -0.11812 -0.07375 1.17427
v -0.11812 -0.07375 1.22427
v -0.05316 -0.07375 1.23747
v 0.00000 -0.07375 1.24627
v 0.05316 -0.07375 1.23747
v 0.11812 -0.07375 1.22427
v 0.11812 -0.07375 1.17427
v -0.10750 -0.17064 1.17973
v -0.10750 -0.17064 1.22973
v -0.04838 -0.17064 1.24293
v 0.00000 -0.17064 1.25173
v 0.04838 -0.17064 1.24293
v 0.10750 -0.17064 1.22973
v 0.10750 -0.17064 1.17973
v -0.09688 -0.26753 1.18677
v -0.09688 -0.26753 1.23677
v -0.04359 -0.26753 1.24997
v 0.00000 -0.26753 1.25877
v 0.04359 -0.26753 1.24997
v 0.09688 -0.26753 1.23677
v 0.09688 -0.26753 1.18677
v -0.08625 -0.36442 1.19536
v -0.08625 -0.36442 1.24536
v -0.03881 -0.36442 1.25856
v 0.00000 -0.36442 1.26736
v 0.03881 -0.36442 1.25856
v 0.08625 -0.36442 1.24536
v 0.08625 -0.36442 1.19536
v -0.07562 -0.46131 1.20552
v -0.07562 -0.46131 1.25552
v -0.03403 -0.46131 1.26872
v 0.00000 -0.46131 1.27752
v 0.03403 -0.46131 1.26872
v 0.07562 -0.46131 1.25552
v 0.07562 -0.46131 1.20552
v -0.03900 -0.55820 1.21723
v -0.03900 -0.55820 1.25223
v -0.01755 -0.55820 1.26543
v 0.00000 -0.55820 1.27423
v 0.01755 -0.55820 1.26543
v 0.03900 -0.55820 1.25223
v 0.03900 -0.55820 1.21723
v 0.00000 -0.62820 1.26423
v 0.16456 -0.21126 1.16370
v 0.17314 -0.24610 1.22434
v 0.16952 -0.28344 1.19877
v 0.15782 -0.27275 1.11602
v 0.26366 -0.17960 1.14642
v 0.27721 -0.22105 1.20532
v 0.27086 -0.27346 1.17773
v 0.25201 -0.26647 1.09578
v 0.36071 -0.15538 1.11669
v 0.37911 -0.20220 1.17366
v 0.36990 -0.26665 1.14516
v 0.34400 -0.26253 1.06498
v 0.45445 -0.14034 1.07514
v 0.47761 -0.18998 1.12995
v 0.46574 -0.26105 1.10187
v 0.43304 -0.25863 1.02450
v 0.54377 -0.13512 1.02255
v 0.57160 -0.18435 1.07487
v 0.55759 -0.25530 1.04853
v 0.51848 -0.25323 0.97498
v 0.62768 -0.13914 0.95975
v 0.66005 -0.18470 1.00924
v 0.64465 -0.24884 0.98570
v 0.59966 -0.24581 0.91690
v 0.70527 -0.15057 0.88760
v 0.74207 -0.18992 0.93392
v 0.72613 -0.24196 0.91386
v 0.67583 -0.23694 0.85055
v 0.77586 -0.16569 0.80718
v 0.81694 -0.19814 0.84991
v 0.80103 -0.23644 0.83336
v 0.74598 -0.22899 0.77609
v 0.84017 -0.17098 0.72060
v 0.88457 -0.20370 0.75868
v 0.86720 -0.24190 0.74378
v 0.80757 -0.23407 0.69264
v 0.89656 -0.17819 0.62746
v 0.94382 -0.21130 0.66054
v 0.92508 -0.24934 0.64742
v 0.86143 -0.24100 0.60287
v -0.16456 -0.21126 1.16370
v -0.17314 -0.24610 1.22434
v -0.16952 -0.28344 1.19877
v -0.15782 -0.27275 1.11602
v -0.26366 -0.17960 1.14642
v -0.27721 -0.22105 1.20532
v -0.27086 -0.27346 1.17773
v -0.25201 -0.26647 1.09578
v -0.36071 -0.15538 1.11669
v -0.37911 -0.20220 1.17366
v -0.36990 -0.26665 1.14516
v -0.34400 -0.26253 1.06498
v -0.45445 -0.14034 1.07514
v -0.47761 -0.18998 1.12995
v -0.46574 -0.26105 1.10187
v -0.43304 -0.25863 1.02450
v -0.54377 -0.13512 1.02255
v -0.57160 -0.18435 1.07487
v -0.55759 -0.25530 1.04853
v -0.51848 -0.25323 0.97498
v -0.62768 -0.13914 0.95975
v -0.66005 -0.18470 1.00924
v -0.64465 -0.24884 0.98570
v -0.59966 -0.24581 0.91690
v -0.70527 -0.15057 0.88760
v -0.74207 -0.18992 0.93392
v -0.72613 -0.24196 0.91386
v -0.67583 -0.23694 0.85055
v -0.77586 -0.16569 0.80718
v -0.81694 -0.19814 0.84991
v -0.80103 -0.23644 0.83336
v -0.74598 -0.22899 0.77609
v -0.84017 -0.17098 0.72060
v -0.88457 -0.20370 0.75868
v -0.86720 -0.24190 0.74378
v -0.80757 -0.23407 0.69264
v -0.89656 -0.17819 0.62746
v -0.94382 -0.21130 0.66054
v -0.92508 -0.24934 0.64742
v -0.86143 -0.24100 0.60287
v 0.83170 0.13830 0.00000
v 0.83861 0.17223 -0.14010
v 0.82840 0.26696 -0.24267
v 0.80031 0.41313 -0.28021
v 0.76249 0.56865 -0.24267
v 0.72748 0.68089 -0.14010
v 0.70466 0.71978 0.00000
v 0.70014 0.67491 0.14010
v 0.71513 0.55830 0.24267
v 0.74562 0.40118 0.28021
v 0.78104 0.25661 0.24267
v 0.81127 0.16626 0.14010
v 0.95389 0.17592 -0.00053
v 0.95624 0.21433 -0.13528
v 0.93950 0.31015 -0.23086
v 0.90403 0.45310 -0.26173
v 0.86048 0.60060 -0.21961
v 0.82311 0.70347 -0.11573
v 0.80194 0.73413 0.02207
v 0.80263 0.68436 0.15687
v 0.82500 0.56752 0.25254
v 0.86307 0.41489 0.28346
v 0.90357 0.27874 0.24129
v 0.93531 0.19691 0.13731
v 1.07106 0.21914 -0.00185
v 1.06838 0.26129 -0.13105
v 1.04488 0.35732 -0.21967
v 1.00212 0.49619 -0.24411
v 0.95332 0.63522 -0.19776
v 0.91427 0.72872 -0.09297
v 0.89544 0.75164 0.04219
v 0.90187 0.69785 0.17150
v 0.93184 0.58175 0.26030
v 0.97731 0.43445 0.28482
v 1.02236 0.30707 0.23836
v 1.05494 0.23364 0.13339
v 1.17542 0.28643 -0.00140
v 1.16798 0.32793 -0.11500
v 1.14005 0.41565 -0.19016
v 1.09424 0.53889 -0.20693
v 1.04510 0.65862 -0.16072
v 1.00833 0.73613 -0.06383
v 0.99378 0.75064 0.05778
v 1.00535 0.69827 0.17152
v 1.03995 0.59306 0.24692
v 1.08829 0.46318 0.26377
v 1.13330 0.35431 0.21742
v 1.16340 0.29431 0.12030
v 1.28862 0.32161 -0.00700
v 1.27482 0.36886 -0.12458
v 1.23761 0.46260 -0.19940
v 1.18111 0.59082 -0.21164
v 1.12376 0.71175 -0.15789
v 1.08364 0.78694 -0.05245
v 1.07148 0.79623 0.07643
v 1.09055 0.73715 0.19422
v 1.13573 0.62552 0.26935
v 1.19493 0.49125 0.28170
v 1.24700 0.38215 0.22774
v 1.27915 0.32486 0.12199
v 1.38838 0.38048 -0.01090
v 1.36865 0.42898 -0.12242
v 1.32467 0.52019 -0.19041
v 1.26191 0.64188 -0.19691
v 1.20137 0.75333 -0.14000
v 1.16185 0.81974 -0.03482
v 1.15392 0.82330 0.09043
v 1.17972 0.76308 0.20221
v 1.23233 0.65519 0.27056
v 1.29765 0.52855 0.27716
v 1.35212 0.42883 0.22000
v 1.38302 0.37910 0.11447
v 1.47249 0.45930 -0.01096
v 1.44876 0.50422 -0.10786
v 1.40225 0.58494 -0.16418
v 1.33924 0.69020 -0.16509
v 1.28134 0.78385 -0.11016
v 1.24623 0.83721 -0.01401
v 1.24330 0.83599 0.09760
v 1.27335 0.78050 0.19476
v 1.32833 0.68562 0.25143
v 1.39349 0.57677 0.25243
v 1.44507 0.49368 0.19724
v 1.47171 0.45448 0.10073
v 1.56830 0.51237 -0.02148
v 1.53642 0.56058 -0.12045
v 1.47964 0.64393 -0.17497
v 1.40606 0.75036 -0.17071
v 1.34157 0.84242 -0.10857
v 1.30549 0.89250 -0.00511
v 1.30748 0.88717 0.11194
v 1.34701 0.82786 0.21121
v 1.41349 0.73048 0.26612
v 1.48911 0.62110 0.26194
v 1.54594 0.54013 0.19949
v 1.57232 0.50410 0.09565
v 1.64781 0.58488 -0.02821
v 1.60996 0.63151 -0.12070
v 1.54740 0.70957 -0.16859
v 1.46951 0.80740 -0.15934
v 1.40435 0.88975 -0.09514
v 1.37105 0.93247 0.00685
v 1.37853 0.92412 0.11931
v 1.42479 0.86693 0.21210
v 1.49743 0.77622 0.26037
v 1.57698 0.67631 0.25117
v 1.63372 0.60452 0.18667
v 1.65695 0.57444 0.08431
v 1.70980 0.67258 -0.02950
v 1.66974 0.71316 -0.10850
v 1.60743 0.77935 -0.14655
v 1.53261 0.86097 -0.13368
v 1.47289 0.92793 -0.07309
v 1.44540 0.96109 0.01901
v 1.45750 0.95156 0.11796
v 1.50595 0.90189 0.19723
v 1.57777 0.82539 0.23559
v 1.65372 0.74256 0.22275
v 1.70504 0.68468 0.16190
v 1.72302 0.66183 0.06948
v 1.78441 0.74145 -0.04466
v 1.73559 0.78213 -0.12380
v 1.66348 0.84722 -0.15873
v 1.57972 0.92643 -0.14029
v 1.51598 0.98995 -0.07318
v 1.49007 1.02008 0.02464
v 1.50893 1.00875 0.12695
v 1.56750 0.95899 0.20635
v 1.65009 0.88415 0.24156
v 1.73458 0.80426 0.22313
v 1.78857 0.74982 0.15577
v 1.80400 0.72944 0.05768
v 1.84099 0.82480 -0.05437
v 1.78749 0.86122 -0.12669
v 1.71190 0.91886 -0.15532
v 1.62681 0.98834 -0.13274
v 1.56516 1.04302 -0.06480
v 1.54367 1.06808 0.03028
v 1.56809 1.05682 0.12704
v 1.63187 1.01225 0.19955
v 1.71794 0.94631 0.22838
v 1.80322 0.87667 0.20580
v 1.85458 0.83015 0.13768
v 1.86559 0.81339 0.04239
v 1.87962 0.91838 -0.05748
v 1.82681 0.94732 -0.11766
v 1.75505 0.99308 -0.13836
v 1.67664 1.04804 -0.11408
v 1.62265 1.09075 -0.05125
v 1.60723 1.10997 0.03331
v 1.63450 1.10058 0.11694
v 1.69716 1.06507 0.17722
v 1.77842 1.01297 0.19801
v 1.85650 0.95823 0.17373
v 1.90064 0.92210 0.11079
v 1.90656 0.90921 0.02614
v 1.92970 0.99967 -0.07673
v 1.86930 1.02564 -0.13521
v 1.79008 1.06726 -0.15177
v 1.70592 1.11744 -0.12197
v 1.65101 1.15631 -0.05379
v 1.63913 1.17397 0.03450
v 1.67347 1.16569 0.11923
v 1.74483 1.13368 0.17771
v 1.83409 1.08652 0.19427
v 1.91732 1.03685 0.16447
v 1.96127 1.00402 0.09629
v 1.96311 0.99190 0.00800
v 1.96165 1.09041 -0.08931
v 1.89933 1.11054 -0.14087
v 1.82013 1.14406 -0.15176
v 1.73826 1.18510 -0.11898
v 1.68780 1.21727 -0.05144
v 1.68080 1.23260 0.03276
v 1.71913 1.22698 0.11107
v 1.79252 1.20192 0.16250
v 1.88131 1.16413 0.17328
v 1.96171 1.12374 0.14052
v 2.00110 1.09650 0.07311
v 1.99851 1.08544 -0.01098
v 1.97703 1.18703 -0.09469
v 1.91897 1.20011 -0.13583
v 1.84730 1.22373 -0.14094
v 1.77516 1.25367 -0.10850
v 1.73332 1.27794 -0.04747
v 1.73117 1.29067 0.02582
v 1.76930 1.28845 0.09176
v 1.83749 1.27188 0.13266
v 1.91746 1.24538 0.13757
v 1.98779 1.21607 0.10517
v 2.01951 1.19530 0.04439
v 2.01335 1.18543 -0.02871
v 2.00085 1.27678 -0.11708
v 1.93812 1.28524 -0.15513
v 1.86276 1.30358 -0.15576
v 1.78885 1.32844 -0.11859
v 1.74870 1.35000 -0.05404
v 1.75068 1.36309 0.02067
v 1.79424 1.36420 0.08553
v 1.86773 1.35303 0.12316
v 1.95144 1.33258 0.12348
v 2.02295 1.30833 0.08640
v 2.05233 1.28948 0.02226
v 2.04201 1.27850 -0.05213
v 2.00831 1.37196 -0.13221
v 1.94713 1.37505 -0.16382
v 1.87544 1.38679 -0.16004
v 1.80691 1.40495 -0.12159
v 1.77227 1.42264 -0.05943
v 1.77803 1.43556 0.00992
v 1.82266 1.44026 0.06789
v 1.89419 1.43548 0.09894
v 1.97346 1.42249 0.09475
v 2.03923 1.40479 0.05645
v 2.06352 1.38880 -0.00515
v 2.05017 1.37712 -0.07409
v 2.00186 1.47040 -0.14038
v 1.94799 1.46886 -0.16384
v 1.88635 1.47441 -0.15684
v 1.82889 1.48593 -0.12093
v 1.80207 1.49945 -0.06652
v 1.81027 1.51157 -0.00798
v 1.85130 1.51903 0.03900
v 1.91417 1.51985 0.06183
v 1.98203 1.51380 0.05439
v 2.03669 1.50251 0.01869
v 2.05452 1.48971 -0.03510
v 2.04010 1.47810 -0.09320
v 1.99965 1.56590 -0.16487
v 1.94471 1.56023 -0.18469
v 1.88322 1.56156 -0.17392
v 1.82736 1.56954 -0.13507
v 1.80349 1.58202 -0.07955
v 1.81483 1.59565 -0.02196
v 1.85834 1.60678 0.02227
v 1.92236 1.61244 0.04130
v 1.98974 1.61110 0.03002
v 2.04242 1.60312 -0.00855
v 2.05721 1.59066 -0.06327
v 2.03998 1.57703 -0.12035
v 1.98378 1.66474 -0.18241
v 1.93330 1.65599 -0.19705
v 1.87799 1.65369 -0.18388
v 1.82900 1.65819 -0.14601
v 1.81009 1.66907 -0.09473
v 1.82308 1.68318 -0.04344
v 1.86450 1.69673 -0.00588
v 1.92324 1.70609 0.00789
v 1.98357 1.70876 -0.00582
v 2.02932 1.70402 -0.04334
v 2.03998 1.69253 -0.09374
v 2.02196 1.67805 -0.14450
v 1.95671 1.76609 -0.19429
v 1.91503 1.75610 -0.20355
v 1.87029 1.75163 -0.18996
v 1.83168 1.75347 -0.15680
v 1.81842 1.76243 -0.11409
v 1.83116 1.77568 -0.07289
v 1.86647 1.78967 -0.04426
v 1.91491 1.80066 -0.03585
v 1.96348 1.80569 -0.04992
v 1.99918 1.80342 -0.08271
v 2.00568 1.79346 -0.12457
v 1.98911 1.77965 -0.16528
v 1.92921 1.86691 -0.21997
v 1.88969 1.85497 -0.22611
v 1.84810 1.84859 -0.21063
v 1.81313 1.84895 -0.17731
v 1.80270 1.85782 -0.13634
v 1.81659 1.87215 -0.09826
v 1.85109 1.88812 -0.07326
v 1.89695 1.90144 -0.06804
v 1.94188 1.90854 -0.08401
v 1.97385 1.90753 -0.11689
v 1.97795 1.89729 -0.15693
v 1.96071 1.88223 -0.19453
v 1.89041 1.97066 -0.23994
v 1.85722 1.95867 -0.24289
v 1.82296 1.95174 -0.22767
v 1.79492 1.95120 -0.19805
v 1.78787 1.95924 -0.16317
v 1.80100 1.97296 -0.13194
v 1.83078 1.98867 -0.11271
v 1.86925 2.00216 -0.11064
v 1.90609 2.00982 -0.12629
v 1.93143 2.00960 -0.15546
v 1.93320 2.00005 -0.18945
v 1.91750 1.98560 -0.22026
v 1.84221 2.07718 -0.25636
v 1.81801 2.06710 -0.25689
v 1.79348 2.06106 -0.24414
v 1.77396 2.06024 -0.22130
v 1.77003 2.06675 -0.19550
v 1.78063 2.07809 -0.17325
v 1.80293 2.09124 -0.16051
v 1.83094 2.10266 -0.16070
v 1.85717 2.10930 -0.17377
v 1.87459 2.10938 -0.19622
v 1.87471 2.10154 -0.22130
v 1.86240 2.08959 -0.24322
v 1.78899 2.18484 -0.28103
v 1.77035 2.17610 -0.28017
v 1.75181 2.17080 -0.26905
v 1.73747 2.17000 -0.25048
v 1.73535 2.17565 -0.23031
v 1.74428 2.18551 -0.21358
v 1.76187 2.19694 -0.20478
v 1.78342 2.20688 -0.20626
v 1.80314 2.21267 -0.21763
v 1.81576 2.21275 -0.23584
v 1.81498 2.20590 -0.25539
v 1.80486 2.19555 -0.27187
v 1.70138 2.33344 -0.29161
v 1.08619 0.17800 0.02393
v 1.08598 0.20080 -0.09088
v 1.06955 0.26282 -0.18879
v 1.03940 0.35460 -0.25489
v 1.00012 0.46217 -0.27912
v 0.95769 0.56915 -0.25779
v 0.91857 0.65927 -0.19415
v 0.88871 0.71879 -0.09788
v 0.87266 0.73866 0.01635
v 0.87287 0.71586 0.13116
v 0.88930 0.65384 0.22907
v 0.91945 0.56206 0.29517
v 0.95873 0.45449 0.31940
v 1.00116 0.34751 0.29807
v 1.04029 0.25739 0.23443
v 1.07014 0.19787 0.13817
v 1.13686 0.10101 0.02645
v 1.13659 0.13066 -0.12281
v 1.11523 0.21128 -0.25009
v 1.07604 0.33059 -0.33602
v 1.02497 0.47044 -0.36752
v 0.96981 0.60952 -0.33979
v 0.91895 0.72667 -0.25705
v 0.88014 0.80405 -0.13191
v 0.85927 0.82988 0.01660
v 0.85954 0.80023 0.16585
v 0.88090 0.71961 0.29313
v 0.92010 0.60030 0.37906
v 0.97116 0.46046 0.41056
v 1.02632 0.32138 0.38283
v 1.07718 0.20423 0.30010
v 1.11600 0.12684 0.17495
v 1.20701 0.08499 0.03109
v 1.20672 0.11768 -0.13347
v 1.18317 0.20656 -0.27380
v 1.13995 0.33811 -0.36855
v 1.08365 0.49230 -0.40328
v 1.02283 0.64565 -0.37270
v 0.96675 0.77481 -0.28148
v 0.92396 0.86013 -0.14350
v 0.90096 0.88861 0.02023
v 0.90126 0.85592 0.18480
v 0.92480 0.76703 0.32513
v 0.96802 0.63548 0.41988
v 1.02432 0.48130 0.45460
v 1.08514 0.32795 0.42403
v 1.14122 0.19879 0.33281
v 1.18401 0.11347 0.19483
v 1.28157 0.11346 0.03662
v 1.28128 0.14615 -0.12795
v 1.25773 0.23503 -0.26828
v 1.21451 0.36658 -0.36303
v 1.15821 0.52077 -0.39776
v 1.09739 0.67412 -0.36718
v 1.04131 0.80328 -0.27596
v 0.99852 0.88860 -0.13798
v 0.97552 0.91708 0.02575
v 0.97581 0.88439 0.19032
v 0.99936 0.79550 0.33065
v 1.04258 0.66395 0.42540
v 1.09888 0.50977 0.46013
v 1.15970 0.35642 0.42955
v 1.21578 0.22726 0.33833
v 1.25857 0.14194 0.20035
v 1.31038 0.17797 0.03943
v 1.31012 0.20686 -0.10599
v 1.28930 0.28541 -0.23001
v 1.25111 0.40167 -0.31374
v 1.20136 0.53792 -0.34443
v 1.14761 0.67344 -0.31741
v 1.09806 0.78759 -0.23680
v 1.06024 0.86298 -0.11486
v 1.03991 0.88815 0.02984
v 1.04017 0.85926 0.17526
v 1.06098 0.78071 0.29928
v 1.09917 0.66446 0.38301
v 1.14893 0.52820 0.41370
v 1.20268 0.39269 0.38668
v 1.25223 0.27854 0.30607
v 1.29005 0.20314 0.18413
v 1.29123 0.25629 0.03911
v 1.29102 0.27909 -0.07570
v 1.27459 0.34111 -0.17360
v 1.24444 0.43289 -0.23970
v 1.20516 0.54046 -0.26393
v 1.16273 0.64745 -0.24260
v 1.12360 0.73756 -0.17896
v 1.09375 0.79708 -0.08270
v 1.07770 0.81696 0.03154
v 1.07791 0.79415 0.14635
v 1.09434 0.73213 0.24426
v 1.12449 0.64036 0.31036
v 1.16377 0.53278 0.33459
v 1.20620 0.42580 0.31326
v 1.24532 0.33568 0.24961
v 1.27518 0.27616 0.15335
v 1.26603 0.12324 -0.06420
v 1.23403 0.10935 -0.06133
v 1.21242 0.10935 -0.08887
v 1.22282 0.12324 -0.11927
v 1.25482 0.13712 -0.12213
v 1.27642 0.13712 -0.09460
v 1.26936 0.10168 -0.07794
v 1.24536 0.09127 -0.07579
v 1.22916 0.09127 -0.09644
v 1.23696 0.10168 -0.11924
v 1.26096 0.11209 -0.12139
v 1.27716 0.11209 -0.10074
v 1.25631 0.09390 -0.10106
v 1.18800 0.41827 -0.37857
v 1.16982 0.38854 -0.37534
v 1.13521 0.38854 -0.38056
v 1.11878 0.41827 -0.38900
v 1.13697 0.44800 -0.39223
v 1.17158 0.44800 -0.38701
v 1.18289 0.41355 -0.40339
v 1.16926 0.39125 -0.40097
v 1.14330 0.39125 -0.40488
v 1.13098 0.41355 -0.41122
v 1.14462 0.43585 -0.41364
v 1.17057 0.43585 -0.40973
v 1.15822 0.41185 -0.41579
v 1.03365 0.79607 -0.27404
v 1.01068 0.77425 -0.28892
v 0.97727 0.77425 -0.27851
v 0.96682 0.79607 -0.25321
v 0.98979 0.81789 -0.23833
v 1.02320 0.81789 -0.24874
v 1.02010 0.81290 -0.28810
v 1.00288 0.79654 -0.29926
v 0.97781 0.79654 -0.29145
v 0.96998 0.81290 -0.27248
v 0.98721 0.82927 -0.26132
v 1.01227 0.82927 -0.26913
v 0.99317 0.81898 -0.28630
v 0.91650 0.87883 0.12105
v 0.90611 0.86495 0.15145
v 0.92771 0.86495 0.17898
v 0.95971 0.87883 0.17612
v 0.97011 0.89271 0.14572
v 0.94851 0.89271 0.11818
v 0.91317 0.90039 0.13479
v 0.90537 0.88997 0.15759
v 0.92157 0.88997 0.17824
v 0.94557 0.90039 0.17609
v 0.95337 0.91080 0.15329
v 0.93717 0.91080 0.13264
v 0.92622 0.90816 0.15791
v 0.99453 0.58380 0.43542
v 1.01095 0.55406 0.44386
v 1.04556 0.55406 0.44908
v 1.06375 0.58380 0.44585
v 1.04732 0.61353 0.43740
v 1.01271 0.61353 0.43219
v 0.99964 0.58852 0.46024
v 1.01196 0.56622 0.46657
v 1.03791 0.56622 0.47049
v 1.05155 0.58852 0.46807
v 1.03923 0.61082 0.46173
v 1.01328 0.61082 0.45782
v 1.02431 0.59022 0.47264
v 1.14888 0.20600 0.33089
v 1.15933 0.18418 0.30559
v 1.19274 0.18418 0.29518
v 1.21571 0.20600 0.31006
v 1.20526 0.22782 0.33536
v 1.17185 0.22782 0.34577
v 1.16243 0.18917 0.34495
v 1.17026 0.17280 0.32598
v 1.19532 0.17280 0.31817
v 1.21255 0.18917 0.32933
v 1.20472 0.20553 0.34830
v 1.17966 0.20553 0.35611
v 1.18936 0.18309 0.34315
v -0.71422 0.67602 0.00000
v -0.73466 0.64806 -0.14010
v -0.76488 0.55770 -0.24267
v -0.80031 0.41313 -0.28021
v -0.83080 0.25602 -0.24267
v -0.84579 0.13940 -0.14010
v -0.84127 0.09453 0.00000
v -0.81844 0.13343 0.14010
v -0.78343 0.24567 0.24267
v -0.74562 0.40118 0.28021
v -0.71752 0.54736 0.24267
v -0.70731 0.64209 0.14010
v -0.81544 0.69256 -0.00291
v -0.83699 0.65931 -0.13733
v -0.87063 0.56714 -0.23204
v -0.91147 0.42535 -0.26160
v -0.94742 0.27620 -0.21811
v -0.96625 0.16934 -0.11327
v -0.96293 0.13338 0.02484
v -0.93833 0.17798 0.15920
v -0.89906 0.29118 0.25382
v -0.85563 0.44264 0.28333
v -0.82273 0.58043 0.23990
v -0.80953 0.66628 0.13515
v -0.91225 0.71230 -0.00636
v -0.93536 0.67437 -0.13483
v -0.97278 0.58122 -0.22172
v -1.01921 0.44311 -0.24362
v -1.06046 0.30252 -0.19471
v -1.08275 0.20556 -0.08818
v -1.08011 0.17820 0.04744
v -1.05325 0.22777 0.17580
v -1.00936 0.34100 0.26251
v -0.96022 0.48753 0.28433
v -0.92272 0.61648 0.23553
v -0.90689 0.69337 0.12918
v -1.01164 0.71648 -0.00721
v -1.03471 0.67787 -0.11973
v -1.07287 0.59205 -0.19254
v -1.12078 0.46920 -0.20598
v -1.16330 0.34824 -0.15652
v -1.18653 0.26822 -0.05751
v -1.18422 0.25059 0.06453
v -1.15701 0.30006 0.17690
v -1.11219 0.40338 0.24948
v -1.06175 0.53286 0.26283
v -1.02336 0.64296 0.21352
v -1.00681 0.70548 0.11474
v -1.09278 0.76122 -0.01475
v -1.12021 0.71593 -0.13070
v -1.16597 0.62341 -0.20223
v -1.22363 0.49536 -0.20996
v -1.27445 0.37350 -0.15193
v -1.30211 0.29652 -0.04380
v -1.29920 0.28506 0.08544
v -1.26649 0.34219 0.20118
v -1.21276 0.45260 0.27240
v -1.15240 0.58670 0.28002
v -1.10686 0.69673 0.22220
v -1.08717 0.75581 0.11439
v -1.17639 0.79027 -0.01967
v -1.20650 0.74242 -0.12913
v -1.25669 0.65159 -0.19323
v -1.31982 0.52992 -0.19451
v -1.37478 0.41813 -0.13282
v -1.40429 0.35110 -0.02479
v -1.40043 0.34681 0.10064
v -1.36424 0.40639 0.20985
v -1.30543 0.51390 0.27358
v -1.23974 0.64051 0.27476
v -1.19085 0.74057 0.21332
v -1.16997 0.79092 0.10565
v -1.26437 0.80722 -0.01956
v -1.29481 0.76158 -0.11422
v -1.34512 0.68045 -0.16654
v -1.40802 0.57521 -0.16225
v -1.46191 0.48198 -0.10270
v -1.49019 0.42935 -0.00392
v -1.48530 0.43142 0.10760
v -1.44854 0.48763 0.20200
v -1.38976 0.58292 0.25397
v -1.32471 0.69176 0.24959
v -1.27714 0.77441 0.19030
v -1.25733 0.81288 0.09187
v -1.33011 0.85739 -0.03092
v -1.36639 0.80688 -0.12719
v -1.42553 0.72230 -0.17711
v -1.49879 0.61604 -0.16703
v -1.56036 0.52550 -0.09989
v -1.59171 0.47790 0.00623
v -1.58444 0.48598 0.12291
v -1.54050 0.54759 0.21888
v -1.47167 0.64621 0.26842
v -1.39638 0.75542 0.25826
v -1.34247 0.83486 0.19142
v -1.32081 0.86842 0.08568
v -1.40021 0.89548 -0.03724
v -1.43982 0.84496 -0.12690
v -1.50326 0.76495 -0.17020
v -1.58092 0.66764 -0.15527
v -1.64479 0.58813 -0.08637
v -1.67609 0.54981 0.01797
v -1.66643 0.56295 0.12981
v -1.61841 0.62403 0.21917
v -1.54489 0.71668 0.26210
v -1.46557 0.81608 0.24711
v -1.41012 0.88503 0.17851
v -1.38889 0.91071 0.07453
v -1.47600 0.92588 -0.03695
v -1.51553 0.88023 -0.11342
v -1.57759 0.81169 -0.14751
v -1.65251 0.73107 -0.12986
v -1.71266 0.66817 -0.06545
v -1.74079 0.64108 0.02843
v -1.72936 0.65703 0.12663
v -1.68144 0.71177 0.20283
v -1.60986 0.79062 0.23661
v -1.53381 0.87246 0.21893
v -1.48206 0.92626 0.15478
v -1.46345 0.94305 0.06121
v -1.52693 0.98108 -0.05134
v -1.57317 0.93328 -0.12802
v -1.64419 0.86517 -0.15923
v -1.72863 0.78784 -0.13643
v -1.79465 0.73061 -0.06595
v -1.82382 0.70948 0.03330
v -1.80833 0.73011 0.13472
v -1.75234 0.78698 0.21115
v -1.67083 0.86485 0.24209
v -1.58567 0.94285 0.21927
v -1.52941 0.99101 0.14904
v -1.51071 1.00239 0.05007
v -1.58355 1.02889 -0.05918
v -1.63285 0.98381 -0.12958
v -1.70683 0.92287 -0.15542
v -1.79334 0.85632 -0.12963
v -1.85906 0.81003 -0.05932
v -1.88618 0.79656 0.03667
v -1.86743 0.81951 0.13263
v -1.80785 0.87274 0.20284
v -1.72338 0.94199 0.22848
v -1.63668 1.00869 0.20269
v -1.58125 1.04683 0.13257
v -1.56461 1.05199 0.03678
v -1.64612 1.07416 -0.05982
v -1.69395 1.03596 -0.11899
v -1.76403 0.98709 -0.13827
v -1.84455 0.93603 -0.11240
v -1.90383 0.90316 -0.04843
v -1.92633 0.89709 0.03651
v -1.90602 0.91943 0.11965
v -1.84835 0.96421 0.17873
v -1.76876 1.01941 0.19791
v -1.68859 1.07025 0.17205
v -1.63915 1.09655 0.10818
v -1.62615 1.09628 0.02333
v -1.68312 1.13571 -0.07673
v -1.73729 1.09847 -0.13521
v -1.81474 1.05365 -0.15177
v -1.90208 1.00922 -0.12197
v -1.96424 0.98350 -0.05379
v -1.98552 0.98287 0.03449
v -1.96020 1.00750 0.11923
v -1.89506 1.05080 0.17771
v -1.80757 1.10115 0.19427
v -1.72116 1.14507 0.16447
v -1.66996 1.16474 0.09629
v -1.65872 1.15983 0.00801
v -1.72579 1.19533 -0.08662
v -1.78149 1.16296 -0.13953
v -1.85919 1.12669 -0.15221
v -1.94509 1.09310 -0.12133
v -2.00405 1.07659 -0.05505
v -2.02172 1.08094 0.02887
v -1.99338 1.10498 0.10794
v -1.92661 1.14227 0.16098
v -1.83932 1.18281 0.17376
v -1.75488 1.21575 0.14287
v -1.70699 1.22733 0.07646
v -1.69892 1.21871 -0.00757
v -1.77285 1.25752 -0.08976
v -1.82479 1.23263 -0.13356
v -1.89547 1.20710 -0.14210
v -1.97203 1.18569 -0.11325
v -2.02252 1.17809 -0.05445
v -2.03521 1.18570 0.01849
v -2.00672 1.20648 0.08603
v -1.94466 1.23487 0.13007
v -1.86567 1.26326 0.13882
v -1.79092 1.28405 0.10992
v -1.75055 1.28816 0.05088
v -1.74617 1.27768 -0.02226
v -1.79560 1.32849 -0.10925
v -1.85195 1.30694 -0.15184
v -1.92676 1.28746 -0.15821
v -2.00609 1.27372 -0.12688
v -2.05617 1.27255 -0.06578
v -2.06598 1.28366 0.00863
v -2.03290 1.30408 0.07642
v -1.96579 1.32833 0.11942
v -1.88263 1.34992 0.12611
v -1.80571 1.36306 0.09469
v -1.76639 1.36151 0.03318
v -1.76493 1.34830 -0.04155
v -1.82192 1.40252 -0.12224
v -1.87727 1.38650 -0.16008
v -1.94894 1.37474 -0.16397
v -2.02329 1.36948 -0.13316
v -2.06802 1.37415 -0.07525
v -2.07391 1.38705 -0.00591
v -2.03938 1.40473 0.05630
v -1.97369 1.42245 0.09469
v -1.89443 1.43545 0.09898
v -1.82284 1.44026 0.06803
v -1.78846 1.43389 0.00957
v -1.79016 1.41974 -0.06019
v -1.84914 1.48272 -0.12968
v -1.89829 1.47287 -0.16036
v -1.96040 1.46844 -0.16202
v -2.02337 1.47026 -0.13455
v -2.05928 1.47872 -0.08453
v -2.06130 1.49133 -0.02556
v -2.02888 1.50472 0.02657
v -1.97072 1.51529 0.05787
v -1.90240 1.52022 0.05997
v -1.84222 1.51818 0.03230
v -1.81532 1.50899 -0.01835
v -1.81951 1.49588 -0.07776
v -1.85487 1.56609 -0.15217
v -1.90551 1.56028 -0.18125
v -1.96794 1.56145 -0.18134
v -2.02973 1.56928 -0.15281
v -2.06293 1.58168 -0.10229
v -2.06181 1.59532 -0.04361
v -2.02669 1.60656 0.00752
v -1.96697 1.61238 0.03739
v -1.89865 1.61122 0.03800
v -1.84004 1.60339 0.00919
v -1.81593 1.59097 -0.04213
v -1.82294 1.57732 -0.10133
v -1.86040 1.65555 -0.16929
v -1.90743 1.65406 -0.19430
v -1.96400 1.66009 -0.19302
v -2.01862 1.67231 -0.16617
v -2.04604 1.68664 -0.11982
v -2.04214 1.69948 -0.06673
v -2.00797 1.70741 -0.02113
v -1.95268 1.70829 0.00476
v -1.89109 1.70188 0.00401
v -1.83970 1.68991 -0.02318
v -1.82054 1.67619 -0.07041
v -1.82947 1.66372 -0.12403
v -1.86253 1.75223 -0.18243
v -1.90179 1.75415 -0.20188
v -1.94786 1.76304 -0.19973
v -1.99121 1.77694 -0.17689
v -2.01134 1.79081 -0.13838
v -2.00576 1.80137 -0.09488
v -1.97598 1.80578 -0.05805
v -1.92998 1.80287 -0.03774
v -1.88007 1.79342 -0.03942
v -1.83964 1.77995 -0.06262
v -1.82627 1.76707 -0.10198
v -1.83567 1.75708 -0.14596
v -1.84700 1.84907 -0.20793
v -1.88462 1.85387 -0.22537
v -1.92771 1.86587 -0.22228
v -1.96716 1.88239 -0.19986
v -1.98388 1.89715 -0.16286
v -1.97638 1.90684 -0.12164
v -1.94667 1.90887 -0.08725
v -1.90271 1.90269 -0.06889
v -1.85628 1.88996 -0.07148
v -1.81982 1.87409 -0.09434
v -1.80944 1.86071 -0.13227
v -1.82029 1.85174 -0.17398
v -1.82720 1.95266 -0.22935
v -1.85912 1.95921 -0.24321
v -1.89480 1.97220 -0.23971
v -1.92655 1.98868 -0.22010
v -1.93862 2.00217 -0.18843
v -1.93047 2.00982 -0.15363
v -1.90429 2.00959 -0.12502
v -1.86709 2.00154 -0.11028
v -1.82884 1.98782 -0.11334
v -1.79979 1.97212 -0.13340
v -1.79300 1.96013 -0.16596
v -1.80372 1.95321 -0.20119
v -1.80030 2.06250 -0.24842
v -1.82380 2.06913 -0.25799
v -1.84943 2.08065 -0.25474
v -1.87157 2.09443 -0.23979
v -1.87893 2.10489 -0.21612
v -1.87164 2.10997 -0.19048
v -1.85166 2.10831 -0.16974
v -1.82435 2.10035 -0.15945
v -1.79701 2.08823 -0.16238
v -1.77698 2.07519 -0.17773
v -1.77343 2.06606 -0.20211
v -1.78243 2.06158 -0.22808
v -1.75990 2.17279 -0.27487
v -1.77816 2.17933 -0.28182
v -1.79759 2.18975 -0.27875
v -1.81383 2.20162 -0.26666
v -1.81839 2.21003 -0.24790
v -1.81175 2.21345 -0.22788
v -1.79569 2.21095 -0.21195
v -1.77453 2.20320 -0.20438
v -1.75392 2.19229 -0.20720
v -1.73939 2.18113 -0.21966
v -1.73775 2.17393 -0.23903
v -1.74557 2.17100 -0.25930
v -1.70138 2.33344 -0.29161
v -0.87266 0.73866 0.01635
v -0.88871 0.71879 -0.09788
v -0.91857 0.65927 -0.19415
v -0.95769 0.56915 -0.25779
v -1.00012 0.46217 -0.27912
v -1.03940 0.35460 -0.25489
v -1.06955 0.26282 -0.18879
v -1.08598 0.20080 -0.09088
v -1.08619 0.17800 0.02393
v -1.07014 0.19787 0.13817
v -1.04029 0.25739 0.23443
v -1.00116 0.34751 0.29807
v -0.95873 0.45449 0.31940
v -0.91945 0.56206 0.29517
v -0.88930 0.65384 0.22907
v -0.87287 0.71586 0.13116
v -0.85927 0.82988 0.01660
v -0.88014 0.80405 -0.13191
v -0.91895 0.72667 -0.25705
v -0.96981 0.60952 -0.33979
v -1.02497 0.47044 -0.36752
v -1.07604 0.33059 -0.33602
v -1.11523 0.21128 -0.25009
v -1.13659 0.13066 -0.12281
v -1.13686 0.10101 0.02645
v -1.11600 0.12684 0.17495
v -1.07718 0.20423 0.30010
v -1.02632 0.32138 0.38283
v -0.97116 0.46046 0.41056
v -0.92010 0.60030 0.37906
v -0.88090 0.71961 0.29313
v -0.85954 0.80023 0.16585
v -0.90096 0.88861 0.02023
v -0.92396 0.86013 -0.14350
v -0.96675 0.77481 -0.28148
v -1.02283 0.64565 -0.37270
v -1.08365 0.49230 -0.40328
v -1.13995 0.33811 -0.36855
v -1.18317 0.20656 -0.27380
v -1.20672 0.11768 -0.13347
v -1.20701 0.08499 0.03109
v -1.18401 0.11347 0.19483
v -1.14122 0.19879 0.33281
v -1.08514 0.32795 0.42403
v -1.02432 0.48130 0.45460
v -0.96802 0.63548 0.41988
v -0.92480 0.76703 0.32513
v -0.90126 0.85592 0.18480
v -0.97552 0.91708 0.02575
v -0.99852 0.88860 -0.13798
v -1.04131 0.80328 -0.27596
v -1.09739 0.67412 -0.36718
v -1.15821 0.52077 -0.39776
v -1.21451 0.36658 -0.36303
v -1.25773 0.23503 -0.26828
v -1.28128 0.14615 -0.12795
v -1.28157 0.11346 0.03662
v -1.25857 0.14194 0.20035
v -1.21578 0.22726 0.33833
v -1.15970 0.35642 0.42955
v -1.09888 0.50977 0.46013
v -1.04258 0.66395 0.42540
v -0.99936 0.79550 0.33065
v -0.97581 0.88439 0.19032
v -1.03991 0.88815 0.02984
v -1.06024 0.86298 -0.11486
v -1.09806 0.78759 -0.23680
v -1.14761 0.67344 -0.31741
v -1.20136 0.53792 -0.34443
v -1.25111 0.40167 -0.31374
v -1.28930 0.28541 -0.23001
v -1.31012 0.20686 -0.10599
v -1.31038 0.17797 0.03943
v -1.29005 0.20314 0.18413
v -1.25223 0.27854 0.30607
v -1.20268 0.39269 0.38668
v -1.14893 0.52820 0.41370
v -1.09917 0.66446 0.38301
v -1.06098 0.78071 0.29928
v -1.04017 0.85926 0.17526
v -1.07770 0.81696 0.03154
v -1.09375 0.79708 -0.08270
v -1.12360 0.73756 -0.17896
v -1.16273 0.64745 -0.24260
v -1.20516 0.54046 -0.26393
v -1.24444 0.43289 -0.23970
v -1.27459 0.34111 -0.17360
v -1.29102 0.27909 -0.07570
v -1.29123 0.25629 0.03911
v -1.27518 0.27616 0.15335
v -1.24532 0.33568 0.24961
v -1.20620 0.42580 0.31326
v -1.16377 0.53278 0.33459
v -1.12449 0.64036 0.31036
v -1.09434 0.73213 0.24426
v -1.07791 0.79415 0.14635
v -0.93120 0.88204 -0.07674
v -0.92372 0.86861 -0.10819
v -0.94796 0.86861 -0.13343
v -0.97968 0.88204 -0.12724
v -0.98716 0.89547 -0.09579
v -0.96292 0.89547 -0.07055
v -0.92951 0.90378 -0.09050
v -0.92390 0.89371 -0.11408
v -0.94208 0.89371 -0.13301
v -0.96587 0.90378 -0.12837
v -0.97148 0.91386 -0.10478
v -0.95330 0.91386 -0.08585
v -0.94489 0.91163 -0.11212
v -1.05132 0.59440 -0.38575
v -1.06874 0.56483 -0.39261
v -1.10374 0.56483 -0.39303
v -1.12131 0.59440 -0.38658
v -1.10389 0.62397 -0.37972
v -1.06890 0.62397 -0.37930
v -1.05979 0.59972 -0.40951
v -1.07285 0.57755 -0.41466
v -1.09910 0.57755 -0.41497
v -1.11228 0.59972 -0.41013
v -1.09922 0.62190 -0.40498
v -1.07297 0.62190 -0.40467
v -1.08593 0.60165 -0.41836
v -1.19035 0.21339 -0.27039
v -1.19767 0.19107 -0.24444
v -1.22946 0.19107 -0.22980
v -1.25394 0.21339 -0.24111
v -1.24662 0.23570 -0.26706
v -1.21483 0.23570 -0.28170
v -1.20577 0.19698 -0.28295
v -1.21125 0.18024 -0.26348
v -1.23510 0.18024 -0.25250
v -1.25346 0.19698 -0.26098
v -1.24797 0.21371 -0.28045
v -1.22413 0.21371 -0.29143
v -1.23231 0.19105 -0.27782
v -1.25133 0.12003 0.13359
v -1.21961 0.10660 0.12740
v -1.19537 0.10660 0.15264
v -1.20285 0.12003 0.18409
v -1.23457 0.13345 0.19028
v -1.25882 0.13345 0.16504
v -1.25302 0.09829 0.14734
v -1.22923 0.08821 0.14270
v -1.21105 0.08821 0.16163
v -1.21666 0.09829 0.18522
v -1.24045 0.10836 0.18986
v -1.25864 0.10836 0.17093
v -1.23764 0.09044 0.16897
v -1.13121 0.40767 0.44260
v -1.11363 0.37810 0.43615
v -1.07864 0.37810 0.43656
v -1.06122 0.40767 0.44343
v -1.07880 0.43724 0.44988
v -1.11379 0.43724 0.44946
v -1.12274 0.40234 0.46636
v -1.10956 0.38017 0.46152
v -1.08331 0.38017 0.46183
v -1.07025 0.40234 0.46698
v -1.08343 0.42452 0.47182
v -1.10968 0.42452 0.47151
v -1.09660 0.40042 0.47521
v -0.99218 0.78868 0.32724
v -0.96770 0.76637 0.33855
v -0.93591 0.76637 0.32391
v -0.92860 0.78868 0.29796
v -0.95307 0.81099 0.28664
v -0.98486 0.81099 0.30129
v -0.97676 0.80509 0.33979
v -0.95840 0.78836 0.34828
v -0.93456 0.78836 0.33730
v -0.92908 0.80509 0.31783
v -0.94743 0.82183 0.30935
v -0.97128 0.82183 0.32033
v -0.95022 0.81102 0.33466
o Helmet_dome
f 2 3 1
f 3 4 1
f 4 5 1
f 5 6 1
f 6 7 1
f 7 8 1
f 8 9 1
f 9 10 1
f 10 11 1
f 11 12 1
f 12 13 1
f 13 14 1
f 14 15 1
f 15 16 1
f 16 17 1
f 17 18 1
f 18 19 1
f 19 20 1
f 20 21 1
f 21 22 1
f 22 23 1
f 23 24 1
f 24 25 1
f 25 26 1
f 26 27 1
f 27 28 1
f 28 29 1
f 29 30 1
f 30 31 1
f 31 32 1
f 32 33 1
f 33 2 1
f 34 35 3 2
f 35 36 4 3
f 36 37 5 4
f 37 38 6 5
f 38 39 7 6
f 39 40 8 7
f 40 41 9 8
f 41 42 10 9
f 42 43 11 10
f 43 44 12 11
f 44 45 13 12
f 45 46 14 13
f 46 47 15 14
f 47 48 16 15
f 48 49 17 16
f 49 50 18 17
f 50 51 19 18
f 51 52 20 19
f 52 53 21 20
f 53 54 22 21
f 54 55 23 22
f 55 56 24 23
f 56 57 25 24
f 57 58 26 25
f 58 59 27 26
f 59 60 28 27
f 60 61 29 28
f 61 62 30 29
f 62 63 31 30
f 63 64 32 31
f 64 65 33 32
f 65 34 2 33
f 66 67 35 34
f 67 68 36 35
f 68 69 37 36
f 69 70 38 37
f 70 71 39 38
f 71 72 40 39
f 72 73 41 40
f 73 74 42 41
f 74 75 43 42
f 75 76 44 43
f 76 77 45 44
f 77 78 46 45
f 78 79 47 46
f 79 80 48 47
f 80 81 49 48
f 81 82 50 49
f 82 83 51 50
f 83 84 52 51
f 84 85 53 52
f 85 86 54 53
f 86 87 55 54
f 87 88 56 55
f 88 89 57 56
f 89 90 58 57
f 90 91 59 58
f 91 92 60 59
f 92 93 61 60
f 93 94 62 61
f 94 95 63 62
f 95 96 64 63
f 96 97 65 64
f 97 66 34 65
f 98 99 67 66
f 99 100 68 67
f 100 101 69 68
f 101 102 70 69
f 102 103 71 70
f 103 104 72 71
f 104 105 73 72
f 105 106 74 73
f 106 107 75 74
f 107 108 76 75
f 108 109 77 76
f 109 110 78 77
f 110 111 79 78
f 111 112 80 79
f 112 113 81 80
f 113 114 82 81
f 114 115 83 82
f 115 116 84 83
f 116 117 85 84
f 117 118 86 85
f 118 119 87 86
f 119 120 88 87
f 120 121 89 88
f 121 122 90 89
f 122 123 91 90
f 123 124 92 91
f 124 125 93 92
f 125 126 94 93
f 126 127 95 94
f 127 128 96 95
f 128 129 97 96
f 129 98 66 97
f 130 131 99 98
f 131 132 100 99
f 132 133 101 100
f 133 134 102 101
f 134 135 103 102
f 135 136 104 103
f 136 137 105 104
f 137 138 106 105
f 138 139 107 106
f 139 140 108 107
f 140 141 109 108
f 141 142 110 109
f 142 143 111 110
f 143 144 112 111
f 144 145 113 112
f 145 146 114 113
f 146 147 115 114
f 147 148 116 115
f 148 149 117 116
f 149 150 118 117
f 150 151 119 118
f 151 152 120 119
f 152 153 121 120
f 153 154 122 121
f 154 155 123 122
f 155 156 124 123
f 156 157 125 124
f 157 158 126 125
f 158 159 127 126
f 159 160 128 127
f 160 161 129 128
f 161 130 98 129
f 162 163 131 130
f 163 164 132 131
f 164 165 133 132
f 165 166 134 133
f 166 167 135 134
f 167 168 136 135
f 168 169 137 136
f 169 170 138 137
f 170 171 139 138
f 171 172 140 139
f 172 173 141 140
f 173 174 142 141
f 174 175 143 142
f 175 176 144 143
f 176 177 145 144
f 177 178 146 145
f 178 179 147 146
f 179 180 148 147
f 180 181 149 148
f 181 182 150 149
f 182 183 151 150
f 183 184 152 151
f 184 185 153 152
f 185 186 154 153
f 186 187 155 154
f 187 188 156 155
f 188 189 157 156
f 189 190 158 157
f 190 191 159 158
f 191 192 160 159
f 192 193 161 160
f 193 162 130 161
f 194 195 163 162
f 195 196 164 163
f 196 197 165 164
f 197 198 166 165
f 198 199 167 166
f 199 200 168 167
f 200 201 169 168
f 201 202 170 169
f 202 203 171 170
f 203 204 172 171
f 204 205 173 172
f 205 206 174 173
f 206 207 175 174
f 207 208 176 175
f 208 209 177 176
f 209 210 178 177
f 210 211 179 178
f 211 212 180 179
f 212 213 181 180
f 213 214 182 181
f 214 215 183 182
f 215 216 184 183
f 216 217 185 184
f 217 218 186 185
f 218 219 187 186
f 219 220 188 187
f 220 221 189 188
f 221 222 190 189
f 222 223 191 190
f 223 224 192 191
f 224 225 193 192
f 225 194 162 193
f 226 227 195 194
f 227 228 196 195
f 228 229 197 196
f 229 230 198 197
f 230 231 199 198
f 231 232 200 199
f 232 233 201 200
f 233 234 202 201
f 234 235 203 202
f 235 236 204 203
f 236 237 205 204
f 237 238 206 205
f 238 239 207 206
f 239 240 208 207
f 240 241 209 208
f 241 242 210 209
f 242 243 211 210
f 243 244 212 211
f 244 245 213 212
f 245 246 214 213
f 246 247 215 214
f 247 248 216 215
f 248 249 217 216
f 249 250 218 217
f 250 251 219 218
f 251 252 220 219
f 252 253 221 220
f 253 254 222 221
f 254 255 223 222
f 255 256 224 223
f 256 257 225 224
f 257 226 194 225
f 258 259 227 226
f 259 260 228 227
f 260 261 229 228
f 261 262 230 229
f 262 263 231 230
f 263 264 232 231
f 264 265 233 232
f 265 266 234 233
f 266 267 235 234
f 267 268 236 235
f 268 269 237 236
f 269 270 238 237
f 270 271 239 238
f 271 272 240 239
f 272 273 241 240
f 273 274 242 241
f 274 275 243 242
f 275 276 244 243
f 276 277 245 244
f 277 278 246 245
f 278 279 247 246
f 279 280 248 247
f 280 281 249 248
f 281 282 250 249
f 282 283 251 250
f 283 284 252 251
f 284 285 253 252
f 285 286 254 253
f 286 287 255 254
f 287 288 256 255
f 288 289 257 256
f 289 258 226 257
f 290 291 259 258
f 291 292 260 259
f 292 293 261 260
f 293 294 262 261
f 294 295 263 262
f 295 296 264 263
f 296 297 265 264
f 297 298 266 265
f 298 299 267 266
f 299 300 268 267
f 300 301 269 268
f 301 302 270 269
f 302 303 271 270
f 303 304 272 271
f 304 305 273 272
f 305 306 274 273
f 306 307 275 274
f 307 308 276 275
f 308 309 277 276
f 309 310 278 277
f 310 311 279 278
f 311 312 280 279
f 312 313 281 280
f 313 314 282 281
f 314 315 283 282
f 315 316 284 283
f 316 317 285 284
f 317 318 286 285
f 318 319 287 286
f 319 320 288 287
f 320 321 289 288
f 321 290 258 289
f 322 323 291 290
f 323 324 292 291
f 324 325 293 292
f 325 326 294 293
f 326 327 295 294
f 327 328 296 295
f 328 329 297 296
f 329 330 298 297
f 330 331 299 298
f 331 332 300 299
f 332 333 301 300
f 333 334 302 301
f 334 335 303 302
f 335 336 304 303
f 336 337 305 304
f 337 338 306 305
f 338 339 307 306
f 339 340 308 307
f 340 341 309 308
f 341 342 310 309
f 342 343 311 310
f 343 344 312 311
f 344 345 313 312
f 345 346 314 313
f 346 347 315 314
f 347 348 316 315
f 348 349 317 316
f 349 350 318 317
f 350 351 319 318
f 351 352 320 319
f 352 353 321 320
f 353 322 290 321
o Helmet_band
f 386 387 355 354
f 355 356 388 387
f 388 389 357 356
f 389 390 358 357
f 358 359 391 390
f 359 360 392 391
f 360 361 393 392
f 393 394 362 361
f 362 363 395 394
f 395 396 364 363
f 396 397 365 364
f 397 398 366 365
f 398 399 367 366
f 399 400 368 367
f 400 401 369 368
f 401 402 370 369
f 402 403 371 370
f 403 404 372 371
f 404 405 373 372
f 405 406 374 373
f 374 375 407 406
f 407 408 376 375
f 376 377 409 408
f 409 410 378 377
f 410 411 379 378
f 379 380 412 411
f 380 381 413 412
f 381 382 414 413
f 382 383 415 414
f 383 384 416 415
f 384 385 417 416
f 385 354 386 417
f 418 419 387 386
f 419 420 388 387
f 420 421 389 388
f 421 422 390 389
f 422 423 391 390
f 423 424 392 391
f 424 425 393 392
f 425 426 394 393
f 426 427 395 394
f 427 428 396 395
f 428 429 397 396
f 429 430 398 397
f 430 431 399 398
f 431 432 400 399
f 432 433 401 400
f 433 434 402 401
f 434 435 403 402
f 435 436 404 403
f 436 437 405 404
f 437 438 406 405
f 438 439 407 406
f 439 440 408 407
f 440 441 409 408
f 441 442 410 409
f 442 443 411 410
f 443 444 412 411
f 444 445 413 412
f 445 446 414 413
f 446 447 415 414
f 447 448 416 415
f 448 449 417 416
f 449 418 386 417
f 450 451 419 418
f 451 452 420 419
f 452 453 421 420
f 453 454 422 421
f 454 455 423 422
f 455 456 424 423
f 456 457 425 424
f 457 458 426 425
f 458 459 427 426
f 459 460 428 427
f 460 461 429 428
f 461 462 430 429
f 462 463 431 430
f 463 464 432 431
f 464 465 433 432
f 465 466 434 433
f 466 467 435 434
f 467 468 436 435
f 468 469 437 436
f 469 470 438 437
f 470 471 439 438
f 471 472 440 439
f 472 473 441 440
f 473 474 442 441
f 474 475 443 442
f 475 476 444 443
f 476 477 445 444
f 477 478 446 445
f 478 479 447 446
f 479 480 448 447
f 480 481 449 448
f 481 450 418 449
f 482 483 451 450
f 483 484 452 451
f 484 485 453 452
f 485 486 454 453
f 486 487 455 454
f 487 488 456 455
f 488 489 457 456
f 489 490 458 457
f 490 491 459 458
f 491 492 460 459
f 492 493 461 460
f 493 494 462 461
f 494 495 463 462
f 495 496 464 463
f 496 497 465 464
f 497 498 466 465
f 498 499 467 466
f 499 500 468 467
f 500 501 469 468
f 501 502 470 469
f 502 503 471 470
f 503 504 472 471
f 504 505 473 472
f 505 506 474 473
f 506 507 475 474
f 507 508 476 475
f 508 509 477 476
f 509 510 478 477
f 510 511 479 478
f 511 512 480 479
f 512 513 481 480
f 513 482 450 481
f 514 515 483 482
f 515 516 484 483
f 516 517 485 484
f 517 518 486 485
f 518 519 487 486
f 519 520 488 487
f 520 521 489 488
f 521 522 490 489
f 522 523 491 490
f 523 524 492 491
f 524 525 493 492
f 525 526 494 493
f 526 527 495 494
f 527 528 496 495
f 528 529 497 496
f 529 530 498 497
f 530 531 499 498
f 531 532 500 499
f 532 533 501 500
f 533 534 502 501
f 534 535 503 502
f 535 536 504 503
f 536 537 505 504
f 537 538 506 505
f 538 539 507 506
f 539 540 508 507
f 540 541 509 508
f 541 542 510 509
f 542 543 511 510
f 543 544 512 511
f 544 545 513 512
f 545 514 482 513
f 546 547 515 514
f 547 548 516 515
f 548 549 517 516
f 549 550 518 517
f 550 551 519 518
f 551 552 520 519
f 552 553 521 520
f 553 554 522 521
f 554 555 523 522
f 555 556 524 523
f 556 557 525 524
f 557 558 526 525
f 558 559 527 526
f 559 560 528 527
f 560 561 529 528
f 561 562 530 529
f 562 563 531 530
f 563 564 532 531
f 564 565 533 532
f 565 566 534 533
f 566 567 535 534
f 567 568 536 535
f 568 569 537 536
f 569 570 538 537
f 570 571 539 538
f 571 572 540 539
f 572 573 541 540
f 573 574 542 541
f 574 575 543 542
f 575 576 544 543
f 576 577 545 544
f 577 546 514 545
o Helmet_rivets
f 578 579 585 584
f 579 580 586 585
f 580 581 587 586
f 581 582 588 587
f 582 583 589 588
f 583 578 584 589
f 584 585 590
f 585 586 590
f 586 587 590
f 587 588 590
f 588 589 590
f 589 584 590
f 591 592 598 597
f 592 593 599 598
f 593 594 600 599
f 594 595 601 600
f 595 596 602 601
f 596 591 597 602
f 597 598 603
f 598 599 603
f 599 600 603
f 600 601 603
f 601 602 603
f 602 597 603
f 604 605 611 610
f 605 606 612 611
f 606 607 613 612
f 607 608 614 613
f 608 609 615 614
f 609 604 610 615
f 610 611 616
f 611 612 616
f 612 613 616
f 613 614 616
f 614 615 616
f 615 610 616
f 617 618 624 623
f 618 619 625 624
f 619 620 626 625
f 620 621 627 626
f 621 622 628 627
f 622 617 623 628
f 623 624 629
f 624 625 629
f 625 626 629
f 626 627 629
f 627 628 629
f 628 623 629
f 630 631 637 636
f 631 632 638 637
f 632 633 639 638
f 633 634 640 639
f 634 635 641 640
f 635 630 636 641
f 636 637 642
f 637 638 642
f 638 639 642
f 639 640 642
f 640 641 642
f 641 636 642
f 643 644 650 649
f 644 645 651 650
f 645 646 652 651
f 646 647 653 652
f 647 648 654 653
f 648 643 649 654
f 649 650 655
f 650 651 655
f 651 652 655
f 652 653 655
f 653 654 655
f 654 649 655
f 656 657 663 662
f 657 658 664 663
f 658 659 665 664
f 659 660 666 665
f 660 661 667 666
f 661 656 662 667
f 662 663 668
f 663 664 668
f 664 665 668
f 665 666 668
f 666 667 668
f 667 662 668
f 669 670 676 675
f 670 671 677 676
f 671 672 678 677
f 672 673 679 678
f 673 674 680 679
f 674 669 675 680
f 675 676 681
f 676 677 681
f 677 678 681
f 678 679 681
f 679 680 681
f 680 675 681
f 682 683 689 688
f 683 684 690 689
f 684 685 691 690
f 685 686 692 691
f 686 687 693 692
f 687 682 688 693
f 688 689 694
f 689 690 694
f 690 691 694
f 691 692 694
f 692 693 694
f 693 688 694
f 695 696 702 701
f 696 697 703 702
f 697 698 704 703
f 698 699 705 704
f 699 700 706 705
f 700 695 701 706
f 701 702 707
f 702 703 707
f 703 704 707
f 704 705 707
f 705 706 707
f 706 701 707
f 708 709 715 714
f 709 710 716 715
f 710 711 717 716
f 711 712 718 717
f 712 713 719 718
f 713 708 714 719
f 714 715 720
f 715 716 720
f 716 717 720
f 717 718 720
f 718 719 720
f 719 714 720
f 721 722 728 727
f 722 723 729 728
f 723 724 730 729
f 724 725 731 730
f 725 726 732 731
f 726 721 727 732
f 727 728 733
f 728 729 733
f 729 730 733
f 730 731 733
f 731 732 733
f 732 727 733
f 734 735 741 740
f 735 736 742 741
f 736 737 743 742
f 737 738 744 743
f 738 739 745 744
f 739 734 740 745
f 740 741 746
f 741 742 746
f 742 743 746
f 743 744 746
f 744 745 746
f 745 740 746
f 747 748 754 753
f 748 749 755 754
f 749 750 756 755
f 750 751 757 756
f 751 752 758 757
f 752 747 753 758
f 753 754 759
f 754 755 759
f 755 756 759
f 756 757 759
f 757 758 759
f 758 753 759
f 760 761 767 766
f 761 762 768 767
f 762 763 769 768
f 763 764 770 769
f 764 765 771 770
f 765 760 766 771
f 766 767 772
f 767 768 772
f 768 769 772
f 769 770 772
f 770 771 772
f 771 766 772
f 773 774 780 779
f 774 775 781 780
f 775 776 782 781
f 776 777 783 782
f 777 778 784 783
f 778 773 779 784
f 779 780 785
f 780 781 785
f 781 782 785
f 782 783 785
f 783 784 785
f 784 779 785
f 786 787 793 792
f 787 788 794 793
f 788 789 795 794
f 789 790 796 795
f 790 791 797 796
f 791 786 792 797
f 792 793 798
f 793 794 798
f 794 795 798
f 795 796 798
f 796 797 798
f 797 792 798
f 799 800 806 805
f 800 801 807 806
f 801 802 808 807
f 802 803 809 808
f 803 804 810 809
f 804 799 805 810
f 805 806 811
f 806 807 811
f 807 808 811
f 808 809 811
f 809 810 811
f 810 805 811
f 812 813 819 818
f 813 814 820 819
f 814 815 821 820
f 815 816 822 821
f 816 817 823 822
f 817 812 818 823
f 818 819 824
f 819 820 824
f 820 821 824
f 821 822 824
f 822 823 824
f 823 818 824
f 825 826 832 831
f 826 827 833 832
f 827 828 834 833
f 828 829 835 834
f 829 830 836 835
f 830 825 831 836
f 831 832 837
f 832 833 837
f 833 834 837
f 834 835 837
f 835 836 837
f 836 831 837
f 838 839 845 844
f 839 840 846 845
f 840 841 847 846
f 841 842 848 847
f 842 843 849 848
f 843 838 844 849
f 844 845 850
f 845 846 850
f 846 847 850
f 847 848 850
f 848 849 850
f 849 844 850
f 851 852 858 857
f 852 853 859 858
f 853 854 860 859
f 854 855 861 860
f 855 856 862 861
f 856 851 857 862
f 857 858 863
f 858 859 863
f 859 860 863
f 860 861 863
f 861 862 863
f 862 857 863
f 1622 1623 1629 1628
f 1623 1624 1630 1629
f 1624 1625 1631 1630
f 1625 1626 1632 1631
f 1626 1627 1633 1632
f 1627 1622 1628 1633
f 1628 1629 1634
f 1629 1630 1634
f 1630 1631 1634
f 1631 1632 1634
f 1632 1633 1634
f 1633 1628 1634
f 1635 1636 1642 1641
f 1636 1637 1643 1642
f 1637 1638 1644 1643
f 1638 1639 1645 1644
f 1639 1640 1646 1645
f 1640 1635 1641 1646
f 1641 1642 1647
f 1642 1643 1647
f 1643 1644 1647
f 1644 1645 1647
f 1645 1646 1647
f 1646 1641 1647
f 1648 1649 1655 1654
f 1649 1650 1656 1655
f 1650 1651 1657 1656
f 1651 1652 1658 1657
f 1652 1653 1659 1658
f 1653 1648 1654 1659
f 1654 1655 1660
f 1655 1656 1660
f 1656 1657 1660
f 1657 1658 1660
f 1658 1659 1660
f 1659 1654 1660
f 1661 1662 1668 1667
f 1662 1663 1669 1668
f 1663 1664 1670 1669
f 1664 1665 1671 1670
f 1665 1666 1672 1671
f 1666 1661 1667 1672
f 1667 1668 1673
f 1668 1669 1673
f 1669 1670 1673
f 1670 1671 1673
f 1671 1672 1673
f 1672 1667 1673
f 1674 1675 1681 1680
f 1675 1676 1682 1681
f 1676 1677 1683 1682
f 1677 1678 1684 1683
f 1678 1679 1685 1684
f 1679 1674 1680 1685
f 1680 1681 1686
f 1681 1682 1686
f 1682 1683 1686
f 1683 1684 1686
f 1684 1685 1686
f 1685 1680 1686
f 1687 1688 1694 1693
f 1688 1689 1695 1694
f 1689 1690 1696 1695
f 1690 1691 1697 1696
f 1691 1692 1698 1697
f 1692 1687 1693 1698
f 1693 1694 1699
f 1694 1695 1699
f 1695 1696 1699
f 1696 1697 1699
f 1697 1698 1699
f 1698 1693 1699
f 2109 2110 2116 2115
f 2110 2111 2117 2116
f 2111 2112 2118 2117
f 2112 2113 2119 2118
f 2113 2114 2120 2119
f 2114 2109 2115 2120
f 2115 2116 2121
f 2116 2117 2121
f 2117 2118 2121
f 2118 2119 2121
f 2119 2120 2121
f 2120 2115 2121
f 2122 2123 2129 2128
f 2123 2124 2130 2129
f 2124 2125 2131 2130
f 2125 2126 2132 2131
f 2126 2127 2133 2132
f 2127 2122 2128 2133
f 2128 2129 2134
f 2129 2130 2134
f 2130 2131 2134
f 2131 2132 2134
f 2132 2133 2134
f 2133 2128 2134
f 2135 2136 2142 2141
f 2136 2137 2143 2142
f 2137 2138 2144 2143
f 2138 2139 2145 2144
f 2139 2140 2146 2145
f 2140 2135 2141 2146
f 2141 2142 2147
f 2142 2143 2147
f 2143 2144 2147
f 2144 2145 2147
f 2145 2146 2147
f 2146 2141 2147
f 2148 2149 2155 2154
f 2149 2150 2156 2155
f 2150 2151 2157 2156
f 2151 2152 2158 2157
f 2152 2153 2159 2158
f 2153 2148 2154 2159
f 2154 2155 2160
f 2155 2156 2160
f 2156 2157 2160
f 2157 2158 2160
f 2158 2159 2160
f 2159 2154 2160
f 2161 2162 2168 2167
f 2162 2163 2169 2168
f 2163 2164 2170 2169
f 2164 2165 2171 2170
f 2165 2166 2172 2171
f 2166 2161 2167 2172
f 2167 2168 2173
f 2168 2169 2173
f 2169 2170 2173
f 2170 2171 2173
f 2171 2172 2173
f 2172 2167 2173
f 2174 2175 2181 2180
f 2175 2176 2182 2181
f 2176 2177 2183 2182
f 2177 2178 2184 2183
f 2178 2179 2185 2184
f 2179 2174 2180 2185
f 2180 2181 2186
f 2181 2182 2186
f 2182 2183 2186
f 2183 2184 2186
f 2184 2185 2186
f 2185 2180 2186
o Helmet_crest
f 869 870 865 864
f 870 871 866 865
f 871 872 867 866
f 872 873 868 867
f 874 875 870 869
f 875 876 871 870
f 876 877 872 871
f 877 878 873 872
f 879 880 875 874
f 880 881 876 875
f 881 882 877 876
f 882 883 878 877
f 884 885 880 879
f 885 886 881 880
f 886 887 882 881
f 887 888 883 882
f 889 890 885 884
f 890 891 886 885
f 891 892 887 886
f 892 893 888 887
f 894 895 890 889
f 895 896 891 890
f 896 897 892 891
f 897 898 893 892
f 899 900 895 894
f 900 901 896 895
f 901 902 897 896
f 902 903 898 897
f 904 905 900 899
f 905 906 901 900
f 906 907 902 901
f 907 908 903 902
f 909 910 905 904
f 910 911 906 905
f 911 912 907 906
f 912 913 908 907
f 914 915 910 909
f 915 916 911 910
f 916 917 912 911
f 917 918 913 912
f 919 920 915 914
f 920 921 916 915
f 921 922 917 916
f 922 923 918 917
f 924 925 920 919
f 925 926 921 920
f 926 927 922 921
f 927 928 923 922
f 929 930 925 924
f 930 931 926 925
f 931 932 927 926
f 932 933 928 927
f 934 935 930 929
f 935 936 931 930
f 936 937 932 931
f 937 938 933 932
f 939 940 935 934
f 940 941 936 935
f 941 942 937 936
f 942 943 938 937
f 944 945 940 939
f 945 946 941 940
f 946 947 942 941
f 947 948 943 942
f 949 950 945 944
f 950 951 946 945
f 951 952 947 946
f 952 953 948 947
f 954 955 950 949
f 955 956 951 950
f 956 957 952 951
f 957 958 953 952
f 959 960 955 954
f 960 961 956 955
f 961 962 957 956
f 962 963 958 957
f 964 965 960 959
f 965 966 961 960
f 966 967 962 961
f 967 968 963 962
f 969 970 965 964
f 970 971 966 965
f 971 972 967 966
f 972 973 968 967
f 974 975 970 969
f 975 976 971 970
f 976 977 972 971
f 977 978 973 972
f 979 980 975 974
f 980 981 976 975
f 981 982 977 976
f 982 983 978 977
f 984 985 980 979
f 985 986 981 980
f 986 987 982 981
f 987 988 983 982
f 989 990 985 984
f 990 991 986 985
f 991 992 987 986
f 992 993 988 987
f 994 995 990 989
f 995 996 991 990
f 996 997 992 991
f 997 998 993 992
f 999 1000 995 994
f 1000 1001 996 995
f 1001 1002 997 996
f 1002 1003 998 997
f 1004 1005 1000 999
f 1005 1006 1001 1000
f 1006 1007 1002 1001
f 1007 1008 1003 1002
f 1009 1010 1005 1004
f 1010 1011 1006 1005
f 1011 1012 1007 1006
f 1012 1013 1008 1007
f 1014 1015 1010 1009
f 1015 1016 1011 1010
f 1016 1017 1012 1011
f 1017 1018 1013 1012
f 1019 1020 1015 1014
f 1020 1021 1016 1015
f 1021 1022 1017 1016
f 1022 1023 1018 1017
f 1024 1025 1020 1019
f 1025 1026 1021 1020
f 1026 1027 1022 1021
f 1027 1028 1023 1022
f 1029 1030 1025 1024
f 1030 1031 1026 1025
f 1031 1032 1027 1026
f 1032 1033 1028 1027
f 1034 1035 1030 1029
f 1035 1036 1031 1030
f 1036 1037 1032 1031
f 1037 1038 1033 1032
f 1039 1040 1035 1034
f 1040 1041 1036 1035
f 1041 1042 1037 1036
f 1042 1043 1038 1037
f 1044 1045 1040 1039
f 1045 1046 1041 1040
f 1046 1047 1042 1041
f 1047 1048 1043 1042
f 1049 1050 1045 1044
f 1050 1051 1046 1045
f 1051 1052 1047 1046
f 1052 1053 1048 1047
f 1054 1055 1050 1049
f 1055 1056 1051 1050
f 1056 1057 1052 1051
f 1057 1058 1053 1052
f 1059 1060 1055 1054
f 1060 1061 1056 1055
f 1061 1062 1057 1056
f 1062 1063 1058 1057
f 1064 1065 1060 1059
f 1065 1066 1061 1060
f 1066 1067 1062 1061
f 1067 1068 1063 1062
o Helmet_noseguard
f 1076 1077 1070 1069
f 1077 1078 1071 1070
f 1078 1079 1072 1071
f 1079 1080 1073 1072
f 1080 1081 1074 1073
f 1081 1082 1075 1074
f 1075 1069 1076 1082
f 1083 1084 1077 1076
f 1084 1085 1078 1077
f 1085 1086 1079 1078
f 1086 1087 1080 1079
f 1087 1088 1081 1080
f 1088 1089 1082 1081
f 1082 1076 1083 1089
f 1090 1091 1084 1083
f 1091 1092 1085 1084
f 1092 1093 1086 1085
f 1093 1094 1087 1086
f 1094 1095 1088 1087
f 1095 1096 1089 1088
f 1089 1083 1090 1096
f 1097 1098 1091 1090
f 1098 1099 1092 1091
f 1099 1100 1093 1092
f 1100 1101 1094 1093
f 1101 1102 1095 1094
f 1102 1103 1096 1095
f 1096 1090 1097 1103
f 1104 1105 1098 1097
f 1105 1106 1099 1098
f 1106 1107 1100 1099
f 1107 1108 1101 1100
f 1108 1109 1102 1101
f 1109 1110 1103 1102
f 1103 1097 1104 1110
f 1111 1112 1105 1104
f 1112 1113 1106 1105
f 1113 1114 1107 1106
f 1114 1115 1108 1107
f 1115 1116 1109 1108
f 1116 1117 1110 1109
f 1110 1104 1111 1117
f 1118 1119 1112 1111
f 1119 1120 1113 1112
f 1120 1121 1114 1113
f 1121 1122 1115 1114
f 1122 1123 1116 1115
f 1123 1124 1117 1116
f 1117 1111 1118 1124
f 1125 1126 1119 1118
f 1126 1127 1120 1119
f 1127 1128 1121 1120
f 1128 1129 1122 1121
f 1129 1130 1123 1122
f 1130 1131 1124 1123
f 1124 1118 1125 1131
f 1132 1126 1125
f 1132 1127 1126
f 1132 1128 1127
f 1132 1129 1128
f 1132 1130 1129
f 1132 1131 1130
f 1132 1125 1131
f 1069 1070 1071 1072 1073 1074 1075
o Helmet_brows
f 1133 1134 1138 1137
f 1134 1135 1139 1138
f 1135 1136 1140 1139
f 1140 1137 1133 1136
f 1137 1138 1142 1141
f 1138 1139 1143 1142
f 1139 1140 1144 1143
f 1144 1141 1137 1140
f 1141 1142 1146 1145
f 1142 1143 1147 1146
f 1143 1144 1148 1147
f 1148 1145 1141 1144
f 1145 1146 1150 1149
f 1146 1147 1151 1150
f 1147 1148 1152 1151
f 1152 1149 1145 1148
f 1149 1150 1154 1153
f 1150 1151 1155 1154
f 1151 1152 1156 1155
f 1156 1153 1149 1152
f 1153 1154 1158 1157
f 1154 1155 1159 1158
f 1155 1156 1160 1159
f 1160 1157 1153 1156
f 1157 1158 1162 1161
f 1158 1159 1163 1162
f 1159 1160 1164 1163
f 1164 1161 1157 1160
f 1161 1162 1166 1165
f 1162 1163 1167 1166
f 1163 1164 1168 1167
f 1168 1165 1161 1164
f 1165 1166 1170 1169
f 1166 1167 1171 1170
f 1167 1168 1172 1171
f 1172 1169 1165 1168
f 1133 1134 1135 1136
f 1169 1170 1171 1172
f 1177 1178 1174 1173
f 1178 1179 1175 1174
f 1179 1180 1176 1175
f 1176 1173 1177 1180
f 1181 1182 1178 1177
f 1182 1183 1179 1178
f 1183 1184 1180 1179
f 1180 1177 1181 1184
f 1185 1186 1182 1181
f 1186 1187 1183 1182
f 1187 1188 1184 1183
f 1184 1181 1185 1188
f 1189 1190 1186 1185
f 1190 1191 1187 1186
f 1191 1192 1188 1187
f 1188 1185 1189 1192
f 1193 1194 1190 1189
f 1194 1195 1191 1190
f 1195 1196 1192 1191
f 1192 1189 1193 1196
f 1197 1198 1194 1193
f 1198 1199 1195 1194
f 1199 1200 1196 1195
f 1196 1193 1197 1200
f 1201 1202 1198 1197
f 1202 1203 1199 1198
f 1203 1204 1200 1199
f 1200 1197 1201 1204
f 1205 1206 1202 1201
f 1206 1207 1203 1202
f 1207 1208 1204 1203
f 1204 1201 1205 1208
f 1209 1210 1206 1205
f 1210 1211 1207 1206
f 1211 1212 1208 1207
f 1208 1205 1209 1212
f 1176 1175 1174 1173
f 1212 1211 1210 1209
o Helmet_horns
f 1213 1214 1226 1225
f 1214 1215 1227 1226
f 1215 1216 1228 1227
f 1216 1217 1229 1228
f 1217 1218 1230 1229
f 1218 1219 1231 1230
f 1219 1220 1232 1231
f 1220 1221 1233 1232
f 1221 1222 1234 1233
f 1222 1223 1235 1234
f 1223 1224 1236 1235
f 1224 1213 1225 1236
f 1225 1226 1238 1237
f 1226 1227 1239 1238
f 1227 1228 1240 1239
f 1228 1229 1241 1240
f 1229 1230 1242 1241
f 1230 1231 1243 1242
f 1231 1232 1244 1243
f 1232 1233 1245 1244
f 1233 1234 1246 1245
f 1234 1235 1247 1246
f 1235 1236 1248 1247
f 1236 1225 1237 1248
f 1237 1238 1250 1249
f 1238 1239 1251 1250
f 1239 1240 1252 1251
f 1240 1241 1253 1252
f 1241 1242 1254 1253
f 1242 1243 1255 1254
f 1243 1244 1256 1255
f 1244 1245 1257 1256
f 1245 1246 1258 1257
f 1246 1247 1259 1258
f 1247 1248 1260 1259
f 1248 1237 1249 1260
f 1249 1250 1262 1261
f 1250 1251 1263 1262
f 1251 1252 1264 1263
f 1252 1253 1265 1264
f 1253 1254 1266 1265
f 1254 1255 1267 1266
f 1255 1256 1268 1267
f 1256 1257 1269 1268
f 1257 1258 1270 1269
f 1258 1259 1271 1270
f 1259 1260 1272 1271
f 1260 1249 1261 1272
f 1261 1262 1274 1273
f 1262 1263 1275 1274
f 1263 1264 1276 1275
f 1264 1265 1277 1276
f 1265 1266 1278 1277
f 1266 1267 1279 1278
f 1267 1268 1280 1279
f 1268 1269 1281 1280
f 1269 1270 1282 1281
f 1270 1271 1283 1282
f 1271 1272 1284 1283
f 1272 1261 1273 1284
f 1273 1274 1286 1285
f 1274 1275 1287 1286
f 1275 1276 1288 1287
f 1276 1277 1289 1288
f 1277 1278 1290 1289
f 1278 1279 1291 1290
f 1279 1280 1292 1291
f 1280 1281 1293 1292
f 1281 1282 1294 1293
f 1282 1283 1295 1294
f 1283 1284 1296 1295
f 1284 1273 1285 1296
f 1285 1286 1298 1297
f 1286 1287 1299 1298
f 1287 1288 1300 1299
f 1288 1289 1301 1300
f 1289 1290 1302 1301
f 1290 1291 1303 1302
f 1291 1292 1304 1303
f 1292 1293 1305 1304
f 1293 1294 1306 1305
f 1294 1295 1307 1306
f 1295 1296 1308 1307
f 1296 1285 1297 1308
f 1297 1298 1310 1309
f 1298 1299 1311 1310
f 1299 1300 1312 1311
f 1300 1301 1313 1312
f 1301 1302 1314 1313
f 1302 1303 1315 1314
f 1303 1304 1316 1315
f 1304 1305 1317 1316
f 1305 1306 1318 1317
f 1306 1307 1319 1318
f 1307 1308 1320 1319
f 1308 1297 1309 1320
f 1309 1310 1322 1321
f 1310 1311 1323 1322
f 1311 1312 1324 1323
f 1312 1313 1325 1324
f 1313 1314 1326 1325
f 1314 1315 1327 1326
f 1315 1316 1328 1327
f 1316 1317 1329 1328
f 1317 1318 1330 1329
f 1318 1319 1331 1330
f 1319 1320 1332 1331
f 1320 1309 1321 1332
f 1321 1322 1334 1333
f 1322 1323 1335 1334
f 1323 1324 1336 1335
f 1324 1325 1337 1336
f 1325 1326 1338 1337
f 1326 1327 1339 1338
f 1327 1328 1340 1339
f 1328 1329 1341 1340
f 1329 1330 1342 1341
f 1330 1331 1343 1342
f 1331 1332 1344 1343
f 1332 1321 1333 1344
f 1333 1334 1346 1345
f 1334 1335 1347 1346
f 1335 1336 1348 1347
f 1336 1337 1349 1348
f 1337 1338 1350 1349
f 1338 1339 1351 1350
f 1339 1340 1352 1351
f 1340 1341 1353 1352
f 1341 1342 1354 1353
f 1342 1343 1355 1354
f 1343 1344 1356 1355
f 1344 1333 1345 1356
f 1345 1346 1358 1357
f 1346 1347 1359 1358
f 1347 1348 1360 1359
f 1348 1349 1361 1360
f 1349 1350 1362 1361
f 1350 1351 1363 1362
f 1351 1352 1364 1363
f 1352 1353 1365 1364
f 1353 1354 1366 1365
f 1354 1355 1367 1366
f 1355 1356 1368 1367
f 1356 1345 1357 1368
f 1357 1358 1370 1369
f 1358 1359 1371 1370
f 1359 1360 1372 1371
f 1360 1361 1373 1372
f 1361 1362 1374 1373
f 1362 1363 1375 1374
f 1363 1364 1376 1375
f 1364 1365 1377 1376
f 1365 1366 1378 1377
f 1366 1367 1379 1378
f 1367 1368 1380 1379
f 1368 1357 1369 1380
f 1369 1370 1382 1381
f 1370 1371 1383 1382
f 1371 1372 1384 1383
f 1372 1373 1385 1384
f 1373 1374 1386 1385
f 1374 1375 1387 1386
f 1375 1376 1388 1387
f 1376 1377 1389 1388
f 1377 1378 1390 1389
f 1378 1379 1391 1390
f 1379 1380 1392 1391
f 1380 1369 1381 1392
f 1381 1382 1394 1393
f 1382 1383 1395 1394
f 1383 1384 1396 1395
f 1384 1385 1397 1396
f 1385 1386 1398 1397
f 1386 1387 1399 1398
f 1387 1388 1400 1399
f 1388 1389 1401 1400
f 1389 1390 1402 1401
f 1390 1391 1403 1402
f 1391 1392 1404 1403
f 1392 1381 1393 1404
f 1393 1394 1406 1405
f 1394 1395 1407 1406
f 1395 1396 1408 1407
f 1396 1397 1409 1408
f 1397 1398 1410 1409
f 1398 1399 1411 1410
f 1399 1400 1412 1411
f 1400 1401 1413 1412
f 1401 1402 1414 1413
f 1402 1403 1415 1414
f 1403 1404 1416 1415
f 1404 1393 1405 1416
f 1405 1406 1418 1417
f 1406 1407 1419 1418
f 1407 1408 1420 1419
f 1408 1409 1421 1420
f 1409 1410 1422 1421
f 1410 1411 1423 1422
f 1411 1412 1424 1423
f 1412 1413 1425 1424
f 1413 1414 1426 1425
f 1414 1415 1427 1426
f 1415 1416 1428 1427
f 1416 1405 1417 1428
f 1417 1418 1430 1429
f 1418 1419 1431 1430
f 1419 1420 1432 1431
f 1420 1421 1433 1432
f 1421 1422 1434 1433
f 1422 1423 1435 1434
f 1423 1424 1436 1435
f 1424 1425 1437 1436
f 1425 1426 1438 1437
f 1426 1427 1439 1438
f 1427 1428 1440 1439
f 1428 1417 1429 1440
f 1429 1430 1442 1441
f 1430 1431 1443 1442
f 1431 1432 1444 1443
f 1432 1433 1445 1444
f 1433 1434 1446 1445
f 1434 1435 1447 1446
f 1435 1436 1448 1447
f 1436 1437 1449 1448
f 1437 1438 1450 1449
f 1438 1439 1451 1450
f 1439 1440 1452 1451
f 1440 1429 1441 1452
f 1441 1442 1454 1453
f 1442 1443 1455 1454
f 1443 1444 1456 1455
f 1444 1445 1457 1456
f 1445 1446 1458 1457
f 1446 1447 1459 1458
f 1447 1448 1460 1459
f 1448 1449 1461 1460
f 1449 1450 1462 1461
f 1450 1451 1463 1462
f 1451 1452 1464 1463
f 1452 1441 1453 1464
f 1453 1454 1466 1465
f 1454 1455 1467 1466
f 1455 1456 1468 1467
f 1456 1457 1469 1468
f 1457 1458 1470 1469
f 1458 1459 1471 1470
f 1459 1460 1472 1471
f 1460 1461 1473 1472
f 1461 1462 1474 1473
f 1462 1463 1475 1474
f 1463 1464 1476 1475
f 1464 1453 1465 1476
f 1465 1466 1478 1477
f 1466 1467 1479 1478
f 1467 1468 1480 1479
f 1468 1469 1481 1480
f 1469 1470 1482 1481
f 1470 1471 1483 1482
f 1471 1472 1484 1483
f 1472 1473 1485 1484
f 1473 1474 1486 1485
f 1474 1475 1487 1486
f 1475 1476 1488 1487
f 1476 1465 1477 1488
f 1477 1478 1490 1489
f 1478 1479 1491 1490
f 1479 1480 1492 1491
f 1480 1481 1493 1492
f 1481 1482 1494 1493
f 1482 1483 1495 1494
f 1483 1484 1496 1495
f 1484 1485 1497 1496
f 1485 1486 1498 1497
f 1486 1487 1499 1498
f 1487 1488 1500 1499
f 1488 1477 1489 1500
f 1489 1490 1502 1501
f 1490 1491 1503 1502
f 1491 1492 1504 1503
f 1492 1493 1505 1504
f 1493 1494 1506 1505
f 1494 1495 1507 1506
f 1495 1496 1508 1507
f 1496 1497 1509 1508
f 1497 1498 1510 1509
f 1498 1499 1511 1510
f 1499 1500 1512 1511
f 1500 1489 1501 1512
f 1501 1502 1514 1513
f 1502 1503 1515 1514
f 1503 1504 1516 1515
f 1504 1505 1517 1516
f 1505 1506 1518 1517
f 1506 1507 1519 1518
f 1507 1508 1520 1519
f 1508 1509 1521 1520
f 1509 1510 1522 1521
f 1510 1511 1523 1522
f 1511 1512 1524 1523
f 1512 1501 1513 1524
f 1513 1514 1525
f 1514 1515 1525
f 1515 1516 1525
f 1516 1517 1525
f 1517 1518 1525
f 1518 1519 1525
f 1519 1520 1525
f 1520 1521 1525
f 1521 1522 1525
f 1522 1523 1525
f 1523 1524 1525
f 1524 1513 1525
f 1700 1701 1713 1712
f 1701 1702 1714 1713
f 1702 1703 1715 1714
f 1703 1704 1716 1715
f 1704 1705 1717 1716
f 1705 1706 1718 1717
f 1706 1707 1719 1718
f 1707 1708 1720 1719
f 1708 1709 1721 1720
f 1709 1710 1722 1721
f 1710 1711 1723 1722
f 1711 1700 1712 1723
f 1712 1713 1725 1724
f 1713 1714 1726 1725
f 1714 1715 1727 1726
f 1715 1716 1728 1727
f 1716 1717 1729 1728
f 1717 1718 1730 1729
f 1718 1719 1731 1730
f 1719 1720 1732 1731
f 1720 1721 1733 1732
f 1721 1722 1734 1733
f 1722 1723 1735 1734
f 1723 1712 1724 1735
f 1724 1725 1737 1736
f 1725 1726 1738 1737
f 1726 1727 1739 1738
f 1727 1728 1740 1739
f 1728 1729 1741 1740
f 1729 1730 1742 1741
f 1730 1731 1743 1742
f 1731 1732 1744 1743
f 1732 1733 1745 1744
f 1733 1734 1746 1745
f 1734 1735 1747 1746
f 1735 1724 1736 1747
f 1736 1737 1749 1748
f 1737 1738 1750 1749
f 1738 1739 1751 1750
f 1739 1740 1752 1751
f 1740 1741 1753 1752
f 1741 1742 1754 1753
f 1742 1743 1755 1754
f 1743 1744 1756 1755
f 1744 1745 1757 1756
f 1745 1746 1758 1757
f 1746 1747 1759 1758
f 1747 1736 1748 1759
f 1748 1749 1761 1760
f 1749 1750 1762 1761
f 1750 1751 1763 1762
f 1751 1752 1764 1763
f 1752 1753 1765 1764
f 1753 1754 1766 1765
f 1754 1755 1767 1766
f 1755 1756 1768 1767
f 1756 1757 1769 1768
f 1757 1758 1770 1769
f 1758 1759 1771 1770
f 1759 1748 1760 1771
f 1760 1761 1773 1772
f 1761 1762 1774 1773
f 1762 1763 1775 1774
f 1763 1764 1776 1775
f 1764 1765 1777 1776
f 1765 1766 1778 1777
f 1766 1767 1779 1778
f 1767 1768 1780 1779
f 1768 1769 1781 1780
f 1769 1770 1782 1781
f 1770 1771 1783 1782
f 1771 1760 1772 1783
f 1772 1773 1785 1784
f 1773 1774 1786 1785
f 1774 1775 1787 1786
f 1775 1776 1788 1787
f 1776 1777 1789 1788
f 1777 1778 1790 1789
f 1778 1779 1791 1790
f 1779 1780 1792 1791
f 1780 1781 1793 1792
f 1781 1782 1794 1793
f 1782 1783 1795 1794
f 1783 1772 1784 1795
f 1784 1785 1797 1796
f 1785 1786 1798 1797
f 1786 1787 1799 1798
f 1787 1788 1800 1799
f 1788 1789 1801 1800
f 1789 1790 1802 1801
f 1790 1791 1803 1802
f 1791 1792 1804 1803
f 1792 1793 1805 1804
f 1793 1794 1806 1805
f 1794 1795 1807 1806
f 1795 1784 1796 1807
f 1796 1797 1809 1808
f 1797 1798 1810 1809
f 1798 1799 1811 1810
f 1799 1800 1812 1811
f 1800 1801 1813 1812
f 1801 1802 1814 1813
f 1802 1803 1815 1814
f 1803 1804 1816 1815
f 1804 1805 1817 1816
f 1805 1806 1818 1817
f 1806 1807 1819 1818
f 1807 1796 1808 1819
f 1808 1809 1821 1820
f 1809 1810 1822 1821
f 1810 1811 1823 1822
f 1811 1812 1824 1823
f 1812 1813 1825 1824
f 1813 1814 1826 1825
f 1814 1815 1827 1826
f 1815 1816 1828 1827
f 1816 1817 1829 1828
f 1817 1818 1830 1829
f 1818 1819 1831 1830
f 1819 1808 1820 1831
f 1820 1821 1833 1832
f 1821 1822 1834 1833
f 1822 1823 1835 1834
f 1823 1824 1836 1835
f 1824 1825 1837 1836
f 1825 1826 1838 1837
f 1826 1827 1839 1838
f 1827 1828 1840 1839
f 1828 1829 1841 1840
f 1829 1830 1842 1841
f 1830 1831 1843 1842
f 1831 1820 1832 1843
f 1832 1833 1845 1844
f 1833 1834 1846 1845
f 1834 1835 1847 1846
f 1835 1836 1848 1847
f 1836 1837 1849 1848
f 1837 1838 1850 1849
f 1838 1839 1851 1850
f 1839 1840 1852 1851
f 1840 1841 1853 1852
f 1841 1842 1854 1853
f 1842 1843 1855 1854
f 1843 1832 1844 1855
f 1844 1845 1857 1856
f 1845 1846 1858 1857
f 1846 1847 1859 1858
f 1847 1848 1860 1859
f 1848 1849 1861 1860
f 1849 1850 1862 1861
f 1850 1851 1863 1862
f 1851 1852 1864 1863
f 1852 1853 1865 1864
f 1853 1854 1866 1865
f 1854 1855 1867 1866
f 1855 1844 1856 1867
f 1856 1857 1869 1868
f 1857 1858 1870 1869
f 1858 1859 1871 1870
f 1859 1860 1872 1871
f 1860 1861 1873 1872
f 1861 1862 1874 1873
f 1862 1863 1875 1874
f 1863 1864 1876 1875
f 1864 1865 1877 1876
f 1865 1866 1878 1877
f 1866 1867 1879 1878
f 1867 1856 1868 1879
f 1868 1869 1881 1880
f 1869 1870 1882 1881
f 1870 1871 1883 1882
f 1871 1872 1884 1883
f 1872 1873 1885 1884
f 1873 1874 1886 1885
f 1874 1875 1887 1886
f 1875 1876 1888 1887
f 1876 1877 1889 1888
f 1877 1878 1890 1889
f 1878 1879 1891 1890
f 1879 1868 1880 1891
f 1880 1881 1893 1892
f 1881 1882 1894 1893
f 1882 1883 1895 1894
f 1883 1884 1896 1895
f 1884 1885 1897 1896
f 1885 1886 1898 1897
f 1886 1887 1899 1898
f 1887 1888 1900 1899
f 1888 1889 1901 1900
f 1889 1890 1902 1901
f 1890 1891 1903 1902
f 1891 1880 1892 1903
f 1892 1893 1905 1904
f 1893 1894 1906 1905
f 1894 1895 1907 1906
f 1895 1896 1908 1907
f 1896 1897 1909 1908
f 1897 1898 1910 1909
f 1898 1899 1911 1910
f 1899 1900 1912 1911
f 1900 1901 1913 1912
f 1901 1902 1914 1913
f 1902 1903 1915 1914
f 1903 1892 1904 1915
f 1904 1905 1917 1916
f 1905 1906 1918 1917
f 1906 1907 1919 1918
f 1907 1908 1920 1919
f 1908 1909 1921 1920
f 1909 1910 1922 1921
f 1910 1911 1923 1922
f 1911 1912 1924 1923
f 1912 1913 1925 1924
f 1913 1914 1926 1925
f 1914 1915 1927 1926
f 1915 1904 1916 1927
f 1916 1917 1929 1928
f 1917 1918 1930 1929
f 1918 1919 1931 1930
f 1919 1920 1932 1931
f 1920 1921 1933 1932
f 1921 1922 1934 1933
f 1922 1923 1935 1934
f 1923 1924 1936 1935
f 1924 1925 1937 1936
f 1925 1926 1938 1937
f 1926 1927 1939 1938
f 1927 1916 1928 1939
f 1928 1929 1941 1940
f 1929 1930 1942 1941
f 1930 1931 1943 1942
f 1931 1932 1944 1943
f 1932 1933 1945 1944
f 1933 1934 1946 1945
f 1934 1935 1947 1946
f 1935 1936 1948 1947
f 1936 1937 1949 1948
f 1937 1938 1950 1949
f 1938 1939 1951 1950
f 1939 1928 1940 1951
f 1940 1941 1953 1952
f 1941 1942 1954 1953
f 1942 1943 1955 1954
f 1943 1944 1956 1955
f 1944 1945 1957 1956
f 1945 1946 1958 1957
f 1946 1947 1959 1958
f 1947 1948 1960 1959
f 1948 1949 1961 1960
f 1949 1950 1962 1961
f 1950 1951 1963 1962
f 1951 1940 1952 1963
f 1952 1953 1965 1964
f 1953 1954 1966 1965
f 1954 1955 1967 1966
f 1955 1956 1968 1967
f 1956 1957 1969 1968
f 1957 1958 1970 1969
f 1958 1959 1971 1970
f 1959 1960 1972 1971
f 1960 1961 1973 1972
f 1961 1962 1974 1973
f 1962 1963 1975 1974
f 1963 1952 1964 1975
f 1964 1965 1977 1976
f 1965 1966 1978 1977
f 1966 1967 1979 1978
f 1967 1968 1980 1979
f 1968 1969 1981 1980
f 1969 1970 1982 1981
f 1970 1971 1983 1982
f 1971 1972 1984 1983
f 1972 1973 1985 1984
f 1973 1974 1986 1985
f 1974 1975 1987 1986
f 1975 1964 1976 1987
f 1976 1977 1989 1988
f 1977 1978 1990 1989
f 1978 1979 1991 1990
f 1979 1980 1992 1991
f 1980 1981 1993 1992
f 1981 1982 1994 1993
f 1982 1983 1995 1994
f 1983 1984 1996 1995
f 1984 1985 1997 1996
f 1985 1986 1998 1997
f 1986 1987 1999 1998
f 1987 1976 1988 1999
f 1988 1989 2001 2000
f 1989 1990 2002 2001
f 1990 1991 2003 2002
f 1991 1992 2004 2003
f 1992 1993 2005 2004
f 1993 1994 2006 2005
f 1994 1995 2007 2006
f 1995 1996 2008 2007
f 1996 1997 2009 2008
f 1997 1998 2010 2009
f 1998 1999 2011 2010
f 1999 1988 2000 2011
f 2000 2001 2012
f 2001 2002 2012
f 2002 2003 2012
f 2003 2004 2012
f 2004 2005 2012
f 2005 2006 2012
f 2006 2007 2012
f 2007 2008 2012
f 2008 2009 2012
f 2009 2010 2012
f 2010 2011 2012
f 2011 2000 2012
o Helmet_sockets
f 1526 1527 1543 1542
f 1527 1528 1544 1543
f 1528 1529 1545 1544
f 1529 1530 1546 1545
f 1530 1531 1547 1546
f 1531 1532 1548 1547
f 1532 1533 1549 1548
f 1533 1534 1550 1549
f 1534 1535 1551 1550
f 1535 1536 1552 1551
f 1536 1537 1553 1552
f 1537 1538 1554 1553
f 1538 1539 1555 1554
f 1539 1540 1556 1555
f 1540 1541 1557 1556
f 1541 1526 1542 1557
f 1542 1543 1559 1558
f 1543 1544 1560 1559
f 1544 1545 1561 1560
f 1545 1546 1562 1561
f 1546 1547 1563 1562
f 1547 1548 1564 1563
f 1548 1549 1565 1564
f 1549 1550 1566 1565
f 1550 1551 1567 1566
f 1551 1552 1568 1567
f 1552 1553 1569 1568
f 1553 1554 1570 1569
f 1554 1555 1571 1570
f 1555 1556 1572 1571
f 1556 1557 1573 1572
f 1557 1542 1558 1573
f 1558 1559 1575 1574
f 1559 1560 1576 1575
f 1560 1561 1577 1576
f 1561 1562 1578 1577
f 1562 1563 1579 1578
f 1563 1564 1580 1579
f 1564 1565 1581 1580
f 1565 1566 1582 1581
f 1566 1567 1583 1582
f 1567 1568 1584 1583
f 1568 1569 1585 1584
f 1569 1570 1586 1585
f 1570 1571 1587 1586
f 1571 1572 1588 1587
f 1572 1573 1589 1588
f 1573 1558 1574 1589
f 1574 1575 1591 1590
f 1575 1576 1592 1591
f 1576 1577 1593 1592
f 1577 1578 1594 1593
f 1578 1579 1595 1594
f 1579 1580 1596 1595
f 1580 1581 1597 1596
f 1581 1582 1598 1597
f 1582 1583 1599 1598
f 1583 1584 1600 1599
f 1584 1585 1601 1600
f 1585 1586 1602 1601
f 1586 1587 1603 1602
f 1587 1588 1604 1603
f 1588 1589 1605 1604
f 1589 1574 1590 1605
f 1590 1591 1607 1606
f 1591 1592 1608 1607
f 1592 1593 1609 1608
f 1593 1594 1610 1609
f 1594 1595 1611 1610
f 1595 1596 1612 1611
f 1596 1597 1613 1612
f 1597 1598 1614 1613
f 1598 1599 1615 1614
f 1599 1600 1616 1615
f 1600 1601 1617 1616
f 1601 1602 1618 1617
f 1602 1603 1619 1618
f 1603 1604 1620 1619
f 1604 1605 1621 1620
f 1605 1590 1606 1621
f 2013 2014 2030 2029
f 2014 2015 2031 2030
f 2015 2016 2032 2031
f 2016 2017 2033 2032
f 2017 2018 2034 2033
f 2018 2019 2035 2034
f 2019 2020 2036 2035
f 2020 2021 2037 2036
f 2021 2022 2038 2037
f 2022 2023 2039 2038
f 2023 2024 2040 2039
f 2024 2025 2041 2040
f 2025 2026 2042 2041
f 2026 2027 2043 2042
f 2027 2028 2044 2043
f 2028 2013 2029 2044
f 2029 2030 2046 2045
f 2030 2031 2047 2046
f 2031 2032 2048 2047
f 2032 2033 2049 2048
f 2033 2034 2050 2049
f 2034 2035 2051 2050
f 2035 2036 2052 2051
f 2036 2037 2053 2052
f 2037 2038 2054 2053
f 2038 2039 2055 2054
f 2039 2040 2056 2055
f 2040 2041 2057 2056
f 2041 2042 2058 2057
f 2042 2043 2059 2058
f 2043 2044 2060 2059
f 2044 2029 2045 2060
f 2045 2046 2062 2061
f 2046 2047 2063 2062
f 2047 2048 2064 2063
f 2048 2049 2065 2064
f 2049 2050 2066 2065
f 2050 2051 2067 2066
f 2051 2052 2068 2067
f 2052 2053 2069 2068
f 2053 2054 2070 2069
f 2054 2055 2071 2070
f 2055 2056 2072 2071
f 2056 2057 2073 2072
f 2057 2058 2074 2073
f 2058 2059 2075 2074
f 2059 2060 2076 2075
f 2060 2045 2061 2076
f 2061 2062 2078 2077
f 2062 2063 2079 2078
f 2063 2064 2080 2079
f 2064 2065 2081 2080
f 2065 2066 2082 2081
f 2066 2067 2083 2082
f 2067 2068 2084 2083
f 2068 2069 2085 2084
f 2069 2070 2086 2085
f 2070 2071 2087 2086
f 2071 2072 2088 2087
f 2072 2073 2089 2088
f 2073 2074 2090 2089
f 2074 2075 2091 2090
f 2075 2076 2092 2091
f 2076 2061 2077 2092
f 2077 2078 2094 2093
f 2078 2079 2095 2094
f 2079 2080 2096 2095
f 2080 2081 2097 2096
f 2081 2082 2098 2097
f 2082 2083 2099 2098
f 2083 2084 2100 2099
f 2084 2085 2101 2100
f 2085 2086 2102 2101
f 2086 2087 2103 2102
f 2087 2088 2104 2103
f 2088 2089 2105 2104
f 2089 2090 2106 2105
f 2090 2091 2107 2106
f 2091 2092 2108 2107
f 2092 2077 2093 2108
